<svg width="50" height="50" viewBox="0 0 50 50" fill="none" xmlns="http://www.w3.org/2000/svg">
<rect width="50" height="50" rx="25" fill="#EFF2F8"/>
<path d="M25 35.0002C30.5228 35.0002 35 32.9854 35 30.5002C35 29.2335 33.837 28.0891 31.9654 27.2713C30.8233 29.3672 29.0817 31.1737 26.8695 32.119C25.6804 32.6272 24.3196 32.6272 23.1305 32.119C20.9183 31.1737 19.1767 29.3672 18.0346 27.2713C16.163 28.0891 15 29.2335 15 30.5002C15 32.9854 19.4772 35.0002 25 35.0002Z" fill="#52668B"/>
<path fill-rule="evenodd" clip-rule="evenodd" d="M18 21.5145C18 17.9165 21.134 14.9998 25 14.9998C28.866 14.9998 32 17.9165 32 21.5145C32 25.0842 29.7658 29.2498 26.2801 30.7394C25.4675 31.0867 24.5325 31.0867 23.7199 30.7394C20.2342 29.2498 18 25.0842 18 21.5145ZM25 23.9998C26.1046 23.9998 27 23.1044 27 21.9998C27 20.8953 26.1046 19.9998 25 19.9998C23.8954 19.9998 23 20.8953 23 21.9998C23 23.1044 23.8954 23.9998 25 23.9998Z" fill="#52668B"/>
</svg>
