<svg width="210" height="301" viewBox="0 0 210 301" fill="none" xmlns="http://www.w3.org/2000/svg">
<mask id="mask0_112_7684" style="mask-type:alpha" maskUnits="userSpaceOnUse" x="0" y="0" width="210" height="325">
<rect width="210" height="325" fill="#D9D9D9"/>
</mask>
<g mask="url(#mask0_112_7684)">
<path d="M333.251 -0.941357C319.086 -5.68625 310.417 -5.68625 296.253 -0.941357C261.697 10.6318 263.196 83.8694 273.874 156.129C246.839 88.2721 211.374 24.1777 175.679 31.5119C161.046 34.52 153.549 38.8694 143.678 50.0833C119.943 77.0497 156.593 138.261 201.233 194.73C144.665 150.215 83.3742 113.697 56.461 137.494C45.2705 147.388 40.9359 154.894 37.9618 169.533C30.7552 205.003 94.0077 240.09 161.408 266.905C89.6285 256.427 17.3071 255.181 5.81258 289.501C1.06768 303.665 1.06768 312.335 5.81258 326.499C17.3071 360.819 89.6285 359.573 161.408 349.095C94.0077 375.91 30.7531 410.997 37.9597 446.467C40.9359 461.106 45.2705 468.612 56.461 478.506C83.3742 502.301 144.667 465.787 201.233 421.27C156.593 477.741 119.943 538.95 143.68 565.917C153.551 577.13 161.049 581.48 175.679 584.488C211.376 591.824 246.842 527.726 273.878 459.869C263.198 532.128 261.699 605.368 296.255 616.941C310.419 621.686 319.089 621.686 333.253 616.941C367.809 605.368 366.31 532.126 355.63 459.864C382.666 527.724 418.132 591.824 453.829 584.488C468.461 581.48 475.959 577.13 485.83 565.917C509.565 538.95 472.915 477.741 428.274 421.27C484.843 465.787 546.134 502.301 573.047 478.506C584.239 468.612 588.574 461.106 591.548 446.467C598.757 410.997 535.502 375.91 468.102 349.095C539.879 359.573 612.201 360.819 623.695 326.499C628.44 312.335 628.44 303.665 623.695 289.501C612.201 255.181 539.879 256.427 468.102 266.905C535.502 240.09 598.755 205.003 591.548 169.533C588.572 154.894 584.239 147.388 573.047 137.494C546.134 113.697 484.841 150.213 428.272 194.73C472.913 138.261 509.565 77.0497 485.827 50.0833C475.957 38.8694 468.461 34.52 453.829 31.5119C418.132 24.1777 382.666 88.2742 355.63 156.133C366.31 83.8716 367.807 10.6318 333.251 -0.941357Z" fill="white" fill-opacity="0.05"/>
</g>
</svg>
