<svg width="24" height="30" viewBox="0 0 24 30" fill="none" xmlns="http://www.w3.org/2000/svg">
<ellipse cx="11.1993" cy="6.00002" rx="6.39999" ry="6.00002" fill="#52668B"/>
<path fill-rule="evenodd" clip-rule="evenodd" d="M18.3998 30C15.7599 30 14.44 30 13.6199 29.2312C12.7998 28.4623 12.7998 27.2249 12.7998 24.75C12.7998 22.2751 12.7998 21.0377 13.6199 20.2688C14.44 19.5 15.7599 19.5 18.3998 19.5C21.0397 19.5 22.3596 19.5 23.1797 20.2688C23.9998 21.0377 23.9998 22.2751 23.9998 24.75C23.9998 27.2249 23.9998 28.4623 23.1797 29.2312C22.3596 30 21.0397 30 18.3998 30ZM21.5486 23.6187C21.9131 23.277 21.9131 22.723 21.5486 22.3813C21.1842 22.0396 20.5932 22.0396 20.2287 22.3813L17.1554 25.2626L16.5709 24.7146C16.2064 24.3729 15.6154 24.3729 15.2509 24.7146C14.8865 25.0563 14.8865 25.6104 15.2509 25.9521L16.4954 27.1187C16.8599 27.4605 17.4508 27.4605 17.8153 27.1187L21.5486 23.6187Z" fill="#52668B"/>
<path d="M16.6635 17.2612C15.0474 16.7765 13.1839 16.5001 11.2 16.5001C5.0144 16.5001 0 19.1864 0 22.5001C0 25.711 4.7079 28.3328 10.6274 28.4925C10.5839 28.303 10.5504 28.115 10.5239 27.9303C10.3996 27.0637 10.3998 26.0049 10.4 24.8791V24.6212C10.3998 23.4953 10.3996 22.4366 10.5239 21.57C10.6622 20.6056 10.9928 19.5501 11.923 18.678C12.8533 17.8058 13.9792 17.4959 15.0078 17.3663C15.507 17.3034 16.0659 17.2745 16.6635 17.2612Z" fill="#52668B"/>
</svg>
