<svg width="96" height="90" viewBox="0 0 96 90" fill="none" xmlns="http://www.w3.org/2000/svg">
<path opacity="0.7" d="M25.3424 40.8865C27.4286 37.5531 27.3014 36.0572 29.7947 33.8978C34.2777 30.0153 38.4824 31.5661 41.5133 28.8342C46.0379 24.756 43.7596 14.9085 38.6615 8.89886C33.4873 2.79922 22.9292 -2.2684 16.5222 1.05173C11.877 3.45885 13.8968 7.95152 7.59857 21.6586C2.94609 31.784 -0.0497408 33.4534 0.000625356 38.9288C0.059409 45.3353 4.24936 52.6884 10.0725 52.781C16.1199 52.8772 22.6908 45.1231 25.3424 40.8865Z" fill="#A7BE7B"/>
<path d="M38.8731 20.301L39.5797 25.8273L42.5914 26.3912L39.5797 26.9551L38.8731 32.4815L38.2712 26.9551L35.1548 26.3912L38.2712 25.8273L38.8731 20.301Z" stroke="#2E3036" stroke-width="1.20621" stroke-linecap="round" stroke-linejoin="round"/>
<path d="M34.4786 48.0456C23.6508 48.0456 14.873 39.2634 14.873 28.43C14.873 23.5075 16.6853 19.0085 19.6786 15.5645" stroke="#2E3036" stroke-width="3.61864" stroke-linecap="round" stroke-linejoin="round"/>
<path d="M58.3696 16.2407C61.1824 19.5307 62.8732 23.7549 62.8732 28.3619C62.8732 38.859 54.0955 47.3685 43.2676 47.3685" stroke="#2E3036" stroke-width="3.61864" stroke-linecap="round" stroke-linejoin="round"/>
<path d="M58.2836 16.3348C57.2492 16.3568 56.4867 16.1093 55.9871 15.8782C53.7654 14.8504 52.4353 12.1533 52.4331 9.00659" fill="#2E3036"/>
<path d="M58.2836 16.3348C58.5332 15.3298 58.4603 14.5307 58.3453 13.992C57.8338 11.5963 55.4989 9.70281 52.4331 9.00659" fill="#2E3036"/>
<path d="M60.3887 18.9689C59.882 18.066 59.7408 17.2761 59.7091 16.7262C59.5681 14.2805 61.3182 11.8353 64.0901 10.3508" fill="#2E3036"/>
<path d="M60.3889 18.9689C61.3922 18.7158 62.062 18.2749 62.4825 17.9195C64.3527 16.3392 64.9212 13.3856 64.0903 10.3508" fill="#2E3036"/>
<path d="M61.2544 22.4308C60.4125 23.0327 59.6433 23.2586 59.1005 23.3496C56.6867 23.7545 54.0689 22.2774 52.2947 19.6797" fill="#2E3036"/>
<path d="M61.2544 22.4306C60.8945 21.4597 60.3842 20.841 59.9857 20.4609C58.214 18.7709 55.219 18.5245 52.2947 19.6796" fill="#2E3036"/>
<path d="M61.8427 30.4163C60.8373 30.6608 60.0394 30.5835 59.5018 30.4655C57.1111 29.9409 55.2318 27.5939 54.5525 24.5215" fill="#2E3036"/>
<path d="M61.8427 30.4163C61.8702 29.381 61.627 28.6165 61.3987 28.1152C60.3837 25.886 57.6962 24.5404 54.5525 24.5215" fill="#2E3036"/>
<path d="M58.9923 37.7921C57.9578 37.8117 57.1958 37.5623 56.6968 37.33C54.4776 36.297 53.1539 33.5967 53.1592 30.45" fill="#2E3036"/>
<path d="M58.9922 37.7921C59.2442 36.7877 59.1732 35.9884 59.0595 35.4494C58.5537 33.0526 56.2234 31.1535 53.1592 30.45" fill="#2E3036"/>
<path d="M52.0694 44.9035C51.1558 44.4173 50.6109 43.8288 50.2876 43.383C48.8497 41.4006 49.0039 38.3967 50.5364 35.6492" fill="#2E3036"/>
<path d="M52.0691 44.9032C52.777 44.148 53.103 43.4149 53.2653 42.8885C53.9871 40.5477 52.8725 37.7544 50.5361 35.6489" fill="#2E3036"/>
<path d="M62.7381 26.3472C62.523 25.3342 62.6232 24.5381 62.7566 24.0036C63.3495 21.6268 65.7477 19.8143 68.8355 19.2234" fill="#2E3036"/>
<path d="M62.738 26.3472C63.7711 26.4046 64.5417 26.1833 65.0488 25.9694C67.3043 25.0183 68.7258 22.3682 68.8354 19.2234" fill="#2E3036"/>
<path d="M61.6982 35.3179C61.8177 34.2892 62.1667 33.5669 62.4636 33.103C63.784 31.0404 66.635 30.0896 69.7496 30.5169" fill="#2E3036"/>
<path d="M61.6982 35.3178C62.6589 35.7025 63.4597 35.7392 64.0085 35.6987C66.4494 35.5186 68.6421 33.4618 69.7496 30.5168" fill="#2E3036"/>
<path d="M56.5718 42.4935C57.1659 41.6456 57.8162 41.1765 58.2979 40.91C60.4399 39.7248 63.3994 40.2464 65.9356 42.1058" fill="#2E3036"/>
<path d="M56.5718 42.4939C57.2338 43.2898 57.9206 43.7035 58.4227 43.9293C60.6551 44.9334 63.5615 44.1689 65.9356 42.1062" fill="#2E3036"/>
<path d="M47.9136 47.1321C48.8508 46.6934 49.6482 46.6111 50.1985 46.6203C52.6456 46.6612 54.9517 48.5897 56.2248 51.4668" fill="#2E3036"/>
<path d="M47.9136 47.1318C48.0913 48.1521 48.4808 48.8533 48.8036 49.2995C50.2392 51.2836 53.1396 52.0706 56.2248 51.4665" fill="#2E3036"/>
<path d="M19.2498 16.1362C20.3056 16.1587 21.0839 15.9061 21.5938 15.6702C23.8614 14.6212 25.219 11.8683 25.2212 8.65649" fill="#2E3036"/>
<path d="M19.2497 16.1365C18.9949 15.1106 19.0694 14.2951 19.1868 13.7453C19.7088 11.3001 22.0919 9.36735 25.2212 8.65674" fill="#2E3036"/>
<path d="M17.1014 18.8248C17.6186 17.9032 17.7627 17.097 17.7951 16.5357C17.939 14.0394 16.1527 11.5437 13.3235 10.0286" fill="#2E3036"/>
<path d="M17.1016 18.8248C16.0776 18.5664 15.3939 18.1164 14.9647 17.7537C13.0559 16.1407 12.4756 13.1261 13.3237 10.0286" fill="#2E3036"/>
<path d="M16.2178 22.3582C17.0772 22.9726 17.8622 23.2032 18.4163 23.2961C20.88 23.7093 23.5519 22.2017 25.3627 19.5503" fill="#2E3036"/>
<path d="M16.2178 22.3579C16.5852 21.3669 17.106 20.7354 17.5127 20.3475C19.3211 18.6225 22.378 18.3711 25.3627 19.55" fill="#2E3036"/>
<path d="M15.6172 30.5082C16.6434 30.7578 17.4578 30.6789 18.0065 30.5584C20.4466 30.0229 22.3648 27.6274 23.0581 24.4915" fill="#2E3036"/>
<path d="M15.6172 30.5082C15.5891 29.4515 15.8374 28.6711 16.0703 28.1595C17.1063 25.8842 19.8494 24.5107 23.0581 24.4915" fill="#2E3036"/>
<path d="M18.5269 38.0362C19.5827 38.0561 20.3604 37.8017 20.8698 37.5646C23.1349 36.5102 24.486 33.754 24.4805 30.5422" fill="#2E3036"/>
<path d="M18.5268 38.0362C18.2696 37.011 18.3421 36.1953 18.4582 35.6451C18.9744 33.1987 21.353 31.2603 24.4805 30.5422" fill="#2E3036"/>
<path d="M25.5933 45.2952C26.5257 44.799 27.0819 44.1984 27.4119 43.7433C28.8795 41.72 28.7221 38.6539 27.1579 35.8496" fill="#2E3036"/>
<path d="M25.5932 45.2952C24.8707 44.5243 24.538 43.7761 24.3723 43.2389C23.6356 40.8496 24.7732 37.9986 27.1579 35.8496" fill="#2E3036"/>
<path d="M14.7034 26.3553C14.923 25.3213 14.8207 24.5089 14.6846 23.9633C14.0794 21.5374 11.6316 19.6874 8.47998 19.0842" fill="#2E3036"/>
<path d="M14.7034 26.3553C13.649 26.4138 12.8625 26.188 12.3449 25.9697C10.0428 24.9989 8.59189 22.294 8.47998 19.0842" fill="#2E3036"/>
<path d="M15.7647 35.5113C15.6428 34.4613 15.2866 33.724 14.9835 33.2506C13.6358 31.1453 10.7259 30.1748 7.54688 30.611" fill="#2E3036"/>
<path d="M15.7647 35.5111C14.7842 35.9037 13.9669 35.9412 13.4067 35.8998C10.9154 35.7159 8.67729 33.6167 7.54688 30.6108" fill="#2E3036"/>
<path d="M20.9964 42.835C20.39 41.9696 19.7262 41.4908 19.2346 41.2187C17.0483 40.009 14.0276 40.5415 11.439 42.4393" fill="#2E3036"/>
<path d="M20.9964 42.8351C20.3207 43.6475 19.6196 44.0697 19.1072 44.3002C16.8287 45.3251 13.8622 44.5448 11.439 42.4395" fill="#2E3036"/>
<path d="M29.8344 47.5695C28.8778 47.1216 28.064 47.0377 27.5023 47.0471C25.0046 47.0888 22.6508 49.0572 21.3513 51.9938" fill="#2E3036"/>
<path d="M29.8344 47.5696C29.653 48.6109 29.2555 49.3267 28.926 49.7821C27.4608 51.8073 24.5004 52.6104 21.3513 51.9939" fill="#2E3036"/>
<path opacity="0.7" d="M19.6057 74.3253V90.0001H83.9317L95.9999 69.1728L68.5861 29.0979L83.9317 74.3502" fill="#A7BE7B"/>
<path d="M49.3521 74.4362L19.7589 74.4244L4.73242 29.0979" stroke="#2E3036" stroke-width="1.20621" stroke-linecap="round" stroke-linejoin="round"/>
<path d="M70.4578 36.5413C74.9155 49.1728 79.3732 61.8044 83.8309 74.436C79.0987 74.4342 74.3661 74.4325 69.6338 74.4307" stroke="#2E3036" stroke-width="1.20621" stroke-miterlimit="10" stroke-linecap="round"/>
<path d="M19.6056 74.6719V86.6166L4.73242 39.3059V29.0979" stroke="#2E3036" stroke-width="1.20621" stroke-linejoin="round"/>
<path d="M19.6057 86.6167H83.8309" stroke="#2E3036" stroke-width="1.20621" stroke-linejoin="round"/>
<path d="M79.0981 70.3755H36.5066" stroke="#2E3036" stroke-width="1.20621" stroke-linecap="round" stroke-linejoin="round"/>
<path d="M76.3942 64.9626H50.7041" stroke="#2E3036" stroke-width="1.20621" stroke-linecap="round" stroke-linejoin="round"/>
<path d="M74.366 81.2029C75.1128 81.2029 75.7181 80.7485 75.7181 80.1879C75.7181 79.6273 75.1128 79.1729 74.366 79.1729C73.6193 79.1729 73.0139 79.6273 73.0139 80.1879C73.0139 80.7485 73.6193 81.2029 74.366 81.2029Z" fill="#2E3036"/>
</svg>
