<svg width="100" height="86" viewBox="0 0 100 86" fill="none" xmlns="http://www.w3.org/2000/svg">
<path opacity="0.7" d="M31.6278 59.3915C29.1999 58.2334 28.0453 58.4106 26.5424 56.912C23.8402 54.2176 25.2864 51.3646 23.3774 49.5496C20.5277 46.8402 12.839 48.9513 7.91994 52.6696C2.92725 56.4435 -1.60361 63.6811 0.549751 67.6718C2.11095 70.5651 5.67871 68.9594 15.8017 72.227C23.2795 74.6407 24.3761 76.4994 28.5767 76.1228C33.4917 75.6823 39.3851 72.4748 39.8123 68.6526C40.2559 64.6833 34.7135 60.8634 31.6278 59.3915Z" fill="#A7BE7B"/>
<path opacity="0.7" d="M73.1708 51.6002C87.9882 51.6002 100 40.0491 100 25.8001C100 11.5511 87.9882 0 73.1708 0C58.3534 0 46.3416 11.5511 46.3416 25.8001C46.3416 40.0491 58.3534 51.6002 73.1708 51.6002Z" fill="#A7BE7B"/>
<path d="M49.187 86.0002C66.923 86.0002 81.3009 84.9001 81.3009 83.5431C81.3009 82.1861 66.923 81.0859 49.187 81.0859C31.4511 81.0859 17.0732 82.1861 17.0732 83.5431C17.0732 84.9001 31.4511 86.0002 49.187 86.0002Z" fill="#2E3036"/>
<path d="M11.3822 2.45752L12.1547 7.66002L15.4472 8.19089L12.1547 8.72176L11.3822 13.9242L10.7242 8.72176L7.31714 8.19089L10.7242 7.66002L11.3822 2.45752Z" stroke="#2E3036" stroke-width="1.20621" stroke-linecap="round" stroke-linejoin="round"/>
<path d="M38.1037 34.4004H21.2459C20.2884 34.4004 19.5122 35.2409 19.5122 36.2776V66.1042C19.5122 67.141 20.2884 67.9815 21.2459 67.9815H38.1037C39.0612 67.9815 39.8374 67.141 39.8374 66.1042V36.2776C39.8374 35.2409 39.0612 34.4004 38.1037 34.4004Z" fill="#2E3036" stroke="#2E3036" stroke-width="4.82485" stroke-miterlimit="10"/>
<path d="M40.8734 39.0342C42.0052 39.2723 43.6224 39.4512 45.4309 39.0342C45.4311 39.0342 50.4785 37.8705 59.725 21.9574C59.9062 21.6613 61.0739 19.8152 63.0396 19.6667C64.477 19.5581 65.8125 20.3975 66.5613 21.3327C66.5614 21.3329 69.9332 25.5445 63.3568 38.0265C63.3407 38.057 63.3273 38.0825 63.3272 38.0827C63.0658 38.5769 63.0387 38.5996 63.0396 38.6177C63.0616 39.0675 80.4408 38.6177 80.441 38.6177C81.9266 39.1963 82.9143 40.6082 82.927 42.1579C82.9428 44.1075 81.4084 45.4367 80.2079 45.8283C79.1267 46.1809 77.925 45.9008 77.9256 45.8682C77.926 45.8383 78.9426 45.6455 79.8973 46.0626C80.8231 46.4672 81.2955 47.273 81.451 47.5465C81.5721 47.7593 82.343 49.1696 81.7524 50.8013C81.2346 52.2316 79.966 53.0161 78.965 53.2473C78.0442 53.46 77.1898 53.2413 77.1783 53.3254C77.1655 53.419 78.2603 53.4116 79.1981 54.0283C80.0755 54.6052 80.775 55.7017 80.8553 56.9439C80.9523 58.4425 80.1427 60.0637 78.965 60.5101C78.9648 60.5102 78.575 60.658 76.3402 60.517C76.6769 60.3779 77.9507 59.8978 78.965 60.5101C80.3759 61.3617 80.1869 63.6644 79.8195 64.8574C79.6863 65.2899 79.368 66.5512 78.2659 67.1481C77.0843 67.7882 74.4454 67.9785 74.4382 67.9801L74.4334 67.9812C67.5972 67.9118 60.7609 67.8424 53.9246 67.773C51.6656 66.9947 49.932 66.137 48.7456 65.4821C46.5971 64.2961 45.539 63.3863 43.5665 62.9832C42.0512 62.6734 40.7291 62.8126 39.8376 62.9832" fill="white"/>
<path d="M40.8734 39.0342C42.0052 39.2723 43.6224 39.4512 45.4309 39.0342C45.4311 39.0342 50.4785 37.8705 59.725 21.9574C59.9062 21.6613 61.0739 19.8152 63.0396 19.6667C64.477 19.5581 65.8125 20.3975 66.5613 21.3327C66.5614 21.3329 69.9332 25.5445 63.3568 38.0265C63.3407 38.057 63.3273 38.0825 63.3272 38.0827C63.0658 38.5769 63.0387 38.5996 63.0396 38.6177C63.0616 39.0675 80.4408 38.6177 80.441 38.6177C81.9266 39.1963 82.9143 40.6082 82.927 42.1579C82.9428 44.1075 81.4084 45.4367 80.2079 45.8283C79.1267 46.1809 77.925 45.9008 77.9256 45.8682C77.926 45.8383 78.9426 45.6455 79.8973 46.0626C80.8231 46.4672 81.2955 47.273 81.451 47.5465C81.5721 47.7593 82.343 49.1696 81.7524 50.8013C81.2346 52.2316 79.966 53.0161 78.9651 53.2473C78.0442 53.46 77.1898 53.2413 77.1783 53.3254C77.1655 53.419 78.2603 53.4116 79.1981 54.0283C80.0755 54.6052 80.775 55.7017 80.8553 56.9439C80.9523 58.4425 80.1427 60.0637 78.9651 60.5101M78.9651 60.5101C78.9648 60.5102 78.575 60.6579 76.3402 60.517C76.6769 60.3779 77.9507 59.8978 78.9651 60.5101ZM78.9651 60.5101C80.3759 61.3617 80.1869 63.6644 79.8195 64.8574C79.6863 65.2899 79.368 66.5512 78.2659 67.1481C77.0842 67.7882 74.4454 67.9785 74.4382 67.9801L74.4334 67.9812C67.5972 67.9118 60.7609 67.8424 53.9246 67.773C51.6656 66.9947 49.932 66.137 48.7456 65.4821C46.5971 64.2961 45.539 63.3863 43.5665 62.9832C42.0512 62.6734 40.7291 62.8126 39.8376 62.9832" stroke="#2E3036" stroke-width="1.20621" stroke-linejoin="round"/>
<path d="M23.5773 65.5242C25.3733 65.5242 26.8293 64.4241 26.8293 63.067C26.8293 61.71 25.3733 60.6099 23.5773 60.6099C21.7812 60.6099 20.3252 61.71 20.3252 63.067C20.3252 64.4241 21.7812 65.5242 23.5773 65.5242Z" fill="white"/>
</svg>
