<svg width="86" height="93" viewBox="0 0 86 93" fill="none" xmlns="http://www.w3.org/2000/svg">
<path opacity="0.7" d="M86 65.4031H46.9816V92.6031H86V65.4031Z" fill="#A7BE7B"/>
<path opacity="0.7" d="M43.4027 29.9916C41.532 26.4951 40.0308 25.7159 39.5295 22.6027C38.6283 17.0051 42.7192 14.7875 42.0081 10.9405C40.9467 5.19779 30.1674 1.13884 21.2818 1.41596C12.2633 1.69705 0.875444 6.58012 0.0446925 13.2785C-0.557631 18.1348 4.97027 19.2584 14.0817 31.9423C20.8123 41.3118 20.535 44.5122 25.7716 47.6726C31.8985 51.3705 41.4962 52.5527 45.2079 48.2812C49.0626 43.8452 45.7802 34.4356 43.4027 29.9916Z" fill="#A7BE7B"/>
<path d="M5.97236 0.603027L6.6533 6.41044L9.5557 7.00304L6.6533 7.59563L5.97236 13.403L5.39234 7.59563L2.38904 7.00304L5.39234 6.41044L5.97236 0.603027Z" stroke="#2E3036" stroke-width="1.20621" stroke-linecap="round" stroke-linejoin="round"/>
<path d="M80.8238 75.8035L81.5048 81.2479L84.4071 81.8035L81.5048 82.359L80.8238 87.8035L80.2438 82.359L77.2405 81.8035L80.2438 81.2479L80.8238 75.8035Z" stroke="#2E3036" stroke-width="1.20621" stroke-linecap="round" stroke-linejoin="round"/>
<path d="M33.068 39.0957C32.8857 38.9456 32.6835 39.0016 32.0265 39.0956C27.5471 39.7359 23.1747 39.0968 23.1748 39.0957C23.1744 39.0973 18.315 58.522 18.3149 58.5221C18.3166 58.5235 38.4469 75.8841 38.4485 75.8855C40.9205 78.1255 42.5686 78.3808 43.6554 78.1203C44.8909 77.8243 45.9949 76.7195 48.0622 76.7957C48.7026 76.8193 48.6418 76.9416 49.2095 76.9169C50.7327 76.8507 52.7346 76.0634 53.2015 74.6821C53.4844 73.8451 53.0931 73.1174 53.5486 72.791C53.9983 72.4686 54.5514 73.0549 55.6314 73.1348C56.9125 73.2296 58.3441 72.568 59.1027 71.5875C60.038 70.3788 59.5166 69.2458 60.3177 68.8369C61.1739 68.3999 61.9825 69.5857 63.0947 69.1807C64.026 68.8416 64.6083 67.5917 64.4832 66.6021C64.3778 65.7681 63.7819 65.213 63.6154 65.0548C59.4517 61.0975 54.6915 49.5197 47.4739 49.5825C42.7794 49.6234 41.7496 54.5476 35.845 54.3961C35.1031 54.3771 30.9269 54.2699 29.5967 51.8174C27.4078 47.7816 34.4786 40.2582 33.068 39.0957Z" fill="white" stroke="#2E3036" stroke-width="1.20621" stroke-miterlimit="10"/>
<path d="M35.6865 38.8794C34.9859 39.4406 34.7696 39.9824 33.9398 41.6792C32.127 45.3858 32.0023 45.1659 31.6688 46.3166C31.1503 48.1058 30.744 49.5078 31.3823 50.6729C32.4298 52.5849 35.8785 53.1068 38.4814 52.3537C42.1881 51.2811 41.8813 48.2879 45.2939 47.5539C48.9624 46.7647 52.6889 49.4978 53.2419 49.9162C53.497 50.1091 53.727 50.3 53.9344 50.4844C54.5082 50.9947 54.9146 51.4553 55.1635 51.7536C56.5874 53.4604 65.9467 65.5025 65.8749 65.4027C65.8746 65.4025 66.2034 65.0269 66.2557 64.9654C66.5851 64.5783 66.5591 63.7144 66.6824 62.5678C66.7524 61.9171 66.7791 62.0248 66.8329 61.4621C66.8329 61.4618 66.9226 60.5243 66.8748 59.538C66.7248 56.446 61.7301 41.5406 61.7658 39.3482C61.7677 39.2369 61.7883 38.7999 61.5149 38.4435C61.1271 37.9377 60.3846 37.9035 60.1102 37.8905C57.2164 37.7537 54.3265 37.3486 51.4308 37.4383C50.7523 37.4593 48.962 37.441 45.3812 37.4044C44.7356 37.3977 42.0183 37.4096 38.656 37.842C37.6191 37.9753 36.6125 38.1376 35.6865 38.8794Z" fill="white" stroke="#2E3036" stroke-width="1.20621" stroke-miterlimit="10"/>
<path d="M8.95488 37.0703L4.81906 53.9677C4.28837 56.1359 5.60769 58.3258 7.76585 58.8589L12.6323 60.0612C14.7905 60.5943 16.9703 59.2689 17.501 57.1007L21.6368 40.2033C22.1675 38.0351 20.8481 35.8452 18.69 35.312L13.8235 34.1098C11.6653 33.5766 9.48558 34.9021 8.95488 37.0703Z" fill="#2E3036"/>
<path d="M62.8455 40.2036L66.9814 57.101C67.512 59.2692 69.6918 60.5946 71.85 60.0615L76.7165 58.8592C78.8746 58.3261 80.1939 56.1362 79.6632 53.968L75.5274 37.0706C74.9967 34.9024 72.817 33.5769 70.6588 34.1101L65.7923 35.3123C63.6342 35.8455 62.3148 38.0354 62.8455 40.2036Z" fill="#2E3036"/>
<path d="M71.6666 13.4033H15.1296V84.6034H71.6666V13.4033Z" stroke="#2E3036" stroke-width="1.20621" stroke-miterlimit="10"/>
<path d="M74.0556 91.804C74.9352 91.804 75.6482 91.0877 75.6482 90.204C75.6482 89.3204 74.9352 88.604 74.0556 88.604C73.1761 88.604 72.463 89.3204 72.463 90.204C72.463 91.0877 73.1761 91.804 74.0556 91.804Z" fill="#2E3036"/>
</svg>
