<svg width="86" height="102" viewBox="0 0 86 102" fill="none" xmlns="http://www.w3.org/2000/svg">
<path opacity="0.7" d="M46.0654 5.35084C41.3752 1.66881 32.0305 -2.53483 24.7924 1.92109C20.5119 4.55637 16.6513 10.4152 18.0521 14.9971C19.0672 18.3173 22.3175 19.2418 35.1129 24.0003C55.4107 31.5489 58.1864 33.2965 60.1773 34.7183C68.7813 40.863 70.2075 46.2647 73.2361 45.4364C78.5501 43.9831 81.7346 25.283 74.4998 18.8556C68.9815 13.9534 60.7374 19.1533 52.3842 12.4247C48.8988 9.61728 49.852 8.32348 46.0654 5.35084Z" fill="#A7BE7B"/>
<path d="M13.9497 40.4629L14.6736 46.5822L17.7595 47.2067L14.6736 47.8311L13.9497 53.9505L13.333 47.8311L10.1399 47.2067L13.333 46.5822L13.9497 40.4629Z" stroke="#2E3036" stroke-width="1.20621" stroke-linecap="round" stroke-linejoin="round"/>
<path d="M41.8881 102C59.4221 102 73.6362 100.868 73.6362 99.4711C73.6362 98.0744 59.4221 96.9421 41.8881 96.9421C24.354 96.9421 10.1399 98.0744 10.1399 99.4711C10.1399 100.868 24.354 102 41.8881 102Z" fill="#2E3036"/>
<path d="M55.6864 23.7606C54.1244 23.7606 52.6463 24.0734 51.261 24.5711C49.1542 17.6754 42.6175 12.6448 34.87 12.6448C25.4203 12.6448 17.7598 20.1242 17.7598 29.3504C17.7598 38.5766 25.4203 46.0562 34.87 46.0562C38.5714 46.0562 41.9885 44.8969 44.7879 42.9464C47.0606 46.5051 51.0747 48.8927 55.6864 48.8927C62.7947 48.8927 68.5568 43.2667 68.5568 36.3267C68.5568 29.3867 62.7947 23.7606 55.6864 23.7606Z" stroke="#2E3036" stroke-width="1.20621" stroke-linecap="round" stroke-linejoin="round"/>
<path d="M36.1767 55.1141C35.7049 55.8105 34.5255 55.8105 34.0537 55.1141L32.7626 53.2083L31.4715 51.3024C30.9997 50.606 31.5894 49.7356 32.5329 49.7356H37.6975C38.641 49.7356 39.2307 50.606 38.7589 51.3024L37.4678 53.2083L36.1767 55.1141Z" fill="#2E3036" stroke="#2E3036" stroke-width="1.20621" stroke-linecap="round" stroke-linejoin="round"/>
<path d="M56.5649 55.3379C56.2504 55.7358 55.4641 55.7358 55.1496 55.3379L54.2888 54.2488L53.4281 53.1597C53.1136 52.7618 53.5067 52.2644 54.1357 52.2644H57.5788C58.2078 52.2644 58.6009 52.7618 58.2864 53.1597L57.4256 54.2488L56.5649 55.3379Z" stroke="#2E3036" stroke-width="1.20621" stroke-linecap="round" stroke-linejoin="round"/>
<path d="M35.1226 58.6051L37.2293 81.7531C37.3234 82.7865 34.6919 85.1405 34.6919 85.1405C34.6919 85.1405 32.0605 82.7865 32.1546 81.7531L34.2613 58.6051C34.3147 58.0187 35.0692 58.0187 35.1226 58.6051Z" fill="#2E3036" stroke="#2E3036" stroke-width="1.20621" stroke-miterlimit="10"/>
<path d="M56.2879 58.4951L58.3946 75.8562C58.4887 76.6312 55.8572 78.3967 55.8572 78.3967C55.8572 78.3967 53.2258 76.6312 53.3198 75.8562L55.4266 58.4951C55.4799 58.0553 56.2345 58.0553 56.2879 58.4951Z" stroke="#2E3036" stroke-width="1.20621" stroke-miterlimit="10"/>
<path d="M24.5323 47.2065C21.3967 51.2966 17.0134 58.095 14.5438 67.337C12.5244 74.8937 12.4913 81.4396 12.8612 85.9834" stroke="#2E3036" stroke-width="1.20621" stroke-miterlimit="10"/>
<path d="M65.1702 48.0493C67.1859 50.8945 70.0038 55.6239 71.5914 62.0531C72.8895 67.31 72.9108 71.8636 72.673 75.0245" stroke="#2E3036" stroke-width="1.20621" stroke-miterlimit="10"/>
<path d="M45.698 43.8346C46.8669 43.0308 49.9662 40.6705 51.6243 36.2478" stroke="#2E3036" stroke-width="1.20621" stroke-linecap="round" stroke-linejoin="round"/>
<g opacity="0.7">
<path d="M73.7125 62.1232C76.7894 61.4801 80.1426 60.7645 83.374 61.4845C86.9956 62.5241 86.4721 65.8288 84.2102 67.9708C72.7703 78.2502 46.2844 85.5096 31.0703 88.2348C26.3869 89.0688 21.6747 89.6942 16.9141 90.0142C12.6315 90.2297 8.22091 90.4377 3.9677 89.4059C1.77073 88.9247 -0.909865 87.1555 0.302225 84.4375C1.15007 82.6636 3.19348 81.6125 4.74123 80.817C6.93681 79.7474 9.1836 78.9839 11.4588 78.3272L11.7171 78.8891C9.76019 80.1806 7.81639 81.4822 6.06125 82.8863C5.05835 83.7543 4.06375 84.5044 3.56216 85.5524C3.54512 85.5988 3.51407 85.6427 3.53434 85.6873C3.5416 85.6933 3.51799 85.7256 3.54235 85.706C3.55944 85.6925 3.57025 85.675 3.57377 85.6565C3.6308 85.5652 3.56096 85.285 3.51347 85.1865C3.46171 85.0822 3.49964 85.1074 3.61948 85.1352C5.46564 85.5675 7.58708 85.3452 9.5341 85.1823C20.8522 83.8358 32.0126 80.9508 43.0602 78.1202C51.9223 75.7718 60.7924 73.2419 69.4528 70.2793C72.6488 69.1502 75.8329 68.0106 78.8565 66.5455C80.1547 65.9125 81.5174 65.193 82.4419 64.2901C82.52 64.2145 82.5266 64.199 82.5439 64.3403C82.5557 64.4041 82.5911 64.4957 82.6203 64.5597C82.6801 64.6333 82.6979 64.6533 82.7341 64.6608C82.7625 64.6613 82.7298 64.6298 82.728 64.5945C82.675 64.5552 82.6411 64.5072 82.576 64.4567L82.3364 64.3048C79.6933 63.1504 76.631 63.0701 73.7567 62.7398C73.7567 62.7398 73.7125 62.1232 73.7125 62.1232Z" fill="#A7BE7B"/>
</g>
<path d="M75.3295 17.7025C76.2646 17.7025 77.0227 17.1364 77.0227 16.4381C77.0227 15.7397 76.2646 15.1736 75.3295 15.1736C74.3943 15.1736 73.6362 15.7397 73.6362 16.4381C73.6362 17.1364 74.3943 17.7025 75.3295 17.7025Z" fill="#2E3036"/>
</svg>
