<svg width="82" height="97" viewBox="0 0 82 97" fill="none" xmlns="http://www.w3.org/2000/svg">
<path opacity="0.7" d="M22.941 41.0746C25.9865 38.9412 26.521 37.4929 29.3874 36.6379C34.5412 35.1006 37.1744 38.4819 40.7042 37.3432C45.9735 35.6433 48.3643 25.4445 46.9218 17.5091C45.4579 9.45495 39.3433 -0.125558 32.9222 0.00124543C28.2667 0.0931605 27.9432 5.19865 17.2048 15.0241C9.27231 22.2821 6.22031 22.45 3.93903 27.5594C1.26971 33.5374 1.4321 42.3016 5.94988 45.0753C10.6416 47.9559 19.0703 43.7861 22.941 41.0746Z" fill="#A7BE7B"/>
<path d="M24.7616 3.90234L25.439 9.21398L28.326 9.75599L25.439 10.298L24.7616 15.6096L24.1847 10.298L21.1973 9.75599L24.1847 9.21398L24.7616 3.90234Z" stroke="#2E3036" stroke-width="1.20621" stroke-linecap="round" stroke-linejoin="round"/>
<path d="M65.9496 85.8535L66.6269 90.4569L69.514 90.9267L66.6269 91.3964L65.9496 95.9998L65.3727 91.3964L62.3853 90.9267L65.3727 90.4569L65.9496 85.8535Z" stroke="#2E3036" stroke-width="1.20621" stroke-linecap="round" stroke-linejoin="round"/>
<path opacity="0.7" d="M80.603 66.2621L59.8816 91.3169H0.603027V80.1235L57.7251 79.722L80.603 53.8535V66.2621Z" fill="#A7BE7B"/>
<path d="M47.3354 53.8535H58.4246" stroke="#2E3036" stroke-width="1.20621" stroke-linecap="round" stroke-linejoin="round"/>
<path d="M58.5028 53.8535H80.603L57.7252 79.5089L0.603027 79.6096L27.0209 53.8535H37.6734" stroke="#2E3036" stroke-width="1.20621" stroke-linecap="round" stroke-linejoin="round"/>
<path d="M0.603027 79.6129V87.4144H57.9164V79.5123L80.603 53.8535V61.6549C73.8847 69.5752 67.1663 77.4955 60.448 85.4157" stroke="#2E3036" stroke-width="1.20621" stroke-linecap="round" stroke-linejoin="round"/>
<path d="M30.702 39.8049C28.718 36.3291 27.5337 31.9383 27.5337 27.1647C27.5337 22.8753 28.4301 19.0101 30.0636 15.7249C30.1218 15.6081 30.0635 15.7249 30.1234 15.6099" stroke="#2E3036" stroke-width="1.20621" stroke-linecap="round" stroke-linejoin="round"/>
<path d="M54.7477 15.6099C56.6405 18.9661 57.6328 22.5839 57.6328 27.0717C57.6328 32.2653 56.1348 37.002 53.6724 40.5854" stroke="#2E3036" stroke-width="1.20621" stroke-linecap="round" stroke-linejoin="round"/>
<path d="M29.9099 15.6099H55.2564" stroke="#2E3036" stroke-width="1.20621" stroke-miterlimit="10"/>
<path d="M30.7019 39.8047C31.1193 40.6174 31.6969 41.7465 32.3788 43.0947C39.5866 57.3439 40.1222 59.8155 39.494 62.2143C39.0769 63.8064 37.9175 66.2441 34.1828 68.6827H50.9834C47.2487 66.2441 46.0893 63.8064 45.6721 62.2143C45.044 59.8155 45.5796 57.3439 52.7874 43.0947C53.4693 41.7465 54.0469 40.6174 54.4643 39.8047" stroke="#2E3036" stroke-width="1.20621" stroke-linecap="round" stroke-linejoin="round"/>
<path d="M27.3193 25.6159C26.1617 24.3475 24.6915 23.1629 23.2937 23.461C19.8634 24.1928 16.9257 33.8464 20.3389 40.7987C24.1851 48.6329 34.1888 49.1534 34.6624 49.1706" stroke="#2E3036" stroke-width="1.20621" stroke-linecap="round" stroke-linejoin="round"/>
<path d="M57.847 25.6159C59.0046 24.3475 60.4748 23.1629 61.8726 23.461C65.3029 24.1928 68.2406 33.8464 64.8274 40.7987C60.9812 48.6329 50.9775 49.1534 50.5039 49.1706" stroke="#2E3036" stroke-width="1.20621" stroke-linecap="round" stroke-linejoin="round"/>
<path d="M47.1696 34.3151L43.0005 32.464L38.8475 34.3414L39.625 30.3902L36.2466 27.6044L40.8962 27.0137L42.9612 23.4146L45.0572 27.0005L49.7119 27.562L46.3578 30.369L47.1696 34.3151Z" fill="#2E3036" stroke="#2E3036" stroke-width="1.20621" stroke-linecap="round" stroke-linejoin="round"/>
<path d="M60.801 72.585H18.8208" stroke="#2E3036" stroke-width="1.20621" stroke-linecap="round" stroke-linejoin="round"/>
<path d="M51.2959 76.4873H10.8999" stroke="#2E3036" stroke-width="1.20621" stroke-linecap="round" stroke-linejoin="round"/>
<path d="M70.7018 85.0729C71.358 85.0729 71.8899 84.5488 71.8899 83.9022C71.8899 83.2556 71.358 82.7314 70.7018 82.7314C70.0457 82.7314 69.5137 83.2556 69.5137 83.9022C69.5137 84.5488 70.0457 85.0729 70.7018 85.0729Z" fill="#2E3036"/>
</svg>
