<svg width="92" height="99" viewBox="0 0 92 99" fill="none" xmlns="http://www.w3.org/2000/svg">
<path opacity="0.7" d="M61.8772 43.6814C63.7062 46.4561 69.2555 46.5852 72.8629 44.7489C76.2817 43.0087 75.6498 40.4707 80.3903 36.6358C84.1879 33.5637 86.2401 33.8042 86.9005 31.5117C87.1464 30.6581 87.1727 29.5409 84.3371 23.172C82.6885 19.469 81.864 17.6174 81.4075 16.9936C75.7761 9.30056 52.9294 15.3141 52.8037 19.9695C52.7253 22.8714 61.543 22.753 63.5862 29.1501C65.4764 35.0683 59.4928 40.0643 61.8772 43.6814Z" fill="#A7BE7B"/>
<path d="M19.5032 3.32544L20.3583 10.3242L24.0032 11.0384L20.3583 11.7526L19.5032 18.7514L18.7747 11.7526L15.0032 11.0384L18.7747 10.3242L19.5032 3.32544Z" stroke="#2E3036" stroke-width="1.20621" stroke-linecap="round" stroke-linejoin="round"/>
<path d="M49.6531 77.7328C57.3575 77.7328 63.6031 77.3265 63.6031 76.8254C63.6031 76.3242 57.3575 75.918 49.6531 75.918C41.9488 75.918 35.7031 76.3242 35.7031 76.8254C35.7031 77.3265 41.9488 77.7328 49.6531 77.7328Z" fill="#2E3036"/>
<path opacity="0.7" d="M90.6032 69.474L67.2916 98.6032H0.603149V85.5896L64.8656 85.1227L90.6032 55.0476V69.474Z" fill="#A7BE7B"/>
<path d="M65.7405 55.0476H90.6032L64.8656 84.8751L0.603149 84.9921L30.3233 55.0476H32.6148" stroke="#2E3036" stroke-width="1.20621" stroke-linecap="round" stroke-linejoin="round"/>
<path d="M0.603149 84.996V94.0661H65.0807V84.879L90.6032 55.0476V64.1177C83.045 73.3259 75.4868 82.5342 67.9287 91.7424" stroke="#2E3036" stroke-width="1.20621" stroke-linecap="round" stroke-linejoin="round"/>
<path d="M49.0738 67.7513C41.7033 67.7513 26.7031 43.0098 26.7031 24.1799C34.0736 24.1799 49.0738 16.9365 49.0738 16.9365C49.0738 16.9365 64.0739 24.1799 71.7031 24.1799C71.7031 43.0098 56.7034 67.7513 49.0738 67.7513Z" stroke="#2E3036" stroke-width="1.20621" stroke-miterlimit="10"/>
<path d="M42.0032 38.0658C44.1531 41.6092 46.303 45.1525 48.4529 48.6958C52.0958 40.7959 52.7603 39.355 56.4032 31.4551" stroke="#2E3036" stroke-width="1.20621" stroke-linecap="round" stroke-linejoin="round"/>
<path d="M28.5032 20.5662L57.3032 0.603271" stroke="#2E3036" stroke-width="1.20621" stroke-linecap="round" stroke-linejoin="round"/>
<path d="M51.9031 13.307L69.9031 0.603271" stroke="#2E3036" stroke-width="1.20621" stroke-linecap="round" stroke-linejoin="round"/>
<path d="M77.1031 18.7513L88.8031 8.76978" stroke="#2E3036" stroke-width="1.20621" stroke-linecap="round" stroke-linejoin="round"/>
<path d="M51.0032 66.8439C55.0524 64.3373 62.4144 59.0081 67.8676 49.6105C74.9447 37.4143 74.4911 25.8027 74.336 24.2706C74.3284 24.1967 73.9596 20.5662 73.9596 20.5662C73.2985 21.5333 72.6375 22.5002 71.9764 23.4673C71.8849 26.166 71.606 29.0561 71.0543 32.0956C68.4627 46.3765 61.148 56.8379 55.6895 63.1113" fill="#2E3036"/>
<path d="M51.0032 66.8439C55.0524 64.3373 62.4144 59.0081 67.8676 49.6105C74.9447 37.4143 74.4911 25.8027 74.336 24.2706C74.3284 24.1966 73.9596 20.5662 73.9596 20.5662C73.2985 21.5333 72.6375 22.5002 71.9764 23.4673C71.8849 26.166 71.606 29.0561 71.0543 32.0956C68.4627 46.3765 61.148 56.8379 55.6895 63.1113" stroke="#2E3036" stroke-width="1.20621" stroke-linecap="round" stroke-linejoin="round"/>
</svg>
