<svg width="46" height="46" viewBox="0 0 46 46" fill="none" xmlns="http://www.w3.org/2000/svg">
<rect width="46" height="46" rx="23" fill="#89A5DA"/>
<path d="M32 23C32 27.9706 27.9706 32 23 32C18.0294 32 14 27.9706 14 23C14 18.0294 18.0294 14 23 14C27.9706 14 32 18.0294 32 23Z" fill="white"/>
<path fill-rule="evenodd" clip-rule="evenodd" d="M23 18.725C23.3728 18.725 23.675 19.0272 23.675 19.4V22.7204L25.7273 24.7727C25.9909 25.0363 25.9909 25.4637 25.7273 25.7273C25.4637 25.9909 25.0363 25.9909 24.7727 25.7273L22.5227 23.4773C22.3961 23.3507 22.325 23.179 22.325 23V19.4C22.325 19.0272 22.6272 18.725 23 18.725Z" fill="#89A5DA"/>
</svg>
