<svg width="46" height="46" viewBox="0 0 46 46" fill="none" xmlns="http://www.w3.org/2000/svg">
<rect width="46" height="46" rx="23" fill="#89A5DA"/>
<path d="M25.668 20.3333L29.2235 16.7778M29.2235 16.7778V19.4444M29.2235 16.7778H26.5569" stroke="white" stroke-width="1.5" stroke-linecap="round" stroke-linejoin="round"/>
<path d="M26.161 25.2646L25.7562 25.6908C25.7562 25.6908 24.7939 26.704 22.1672 23.9386C19.5405 21.1732 20.5028 20.1601 20.5028 20.1601L20.7578 19.8917C21.3858 19.2304 21.445 18.1689 20.8971 17.3939L19.7762 15.8085C19.098 14.8493 17.7875 14.7226 17.0102 15.541L15.615 17.0099C15.2295 17.4157 14.9712 17.9417 15.0026 18.5253C15.0827 20.0182 15.7206 23.2303 19.2803 26.9779C23.0552 30.9522 26.5972 31.1102 28.0456 30.9672C28.5037 30.922 28.9022 30.6749 29.2232 30.3369L30.4859 29.0075C31.3383 28.1101 31.098 26.5717 30.0074 25.944L28.3092 24.9665C27.5931 24.5543 26.7207 24.6754 26.161 25.2646Z" fill="white"/>
</svg>
