<svg width="46" height="46" viewBox="0 0 46 46" fill="none" xmlns="http://www.w3.org/2000/svg">
<rect width="46" height="46" rx="23" fill="#89A5DA"/>
<path d="M23 32.0001C27.9706 32.0001 32 30.1869 32 27.9501C32 26.8102 30.9533 25.7802 29.2689 25.0442C28.241 26.9304 26.6736 28.5563 24.6826 29.4071C23.6124 29.8645 22.3876 29.8645 21.3174 29.4071C19.3264 28.5563 17.759 26.9304 16.7311 25.0442C15.0467 25.7802 14 26.8102 14 27.9501C14 30.1869 18.0294 32.0001 23 32.0001Z" fill="white"/>
<path fill-rule="evenodd" clip-rule="evenodd" d="M16.6992 19.863C16.6992 16.6249 19.5198 13.9999 22.9992 13.9999C26.4786 13.9999 29.2992 16.6249 29.2992 19.863C29.2992 23.0758 27.2885 26.8248 24.1513 28.1655C23.4199 28.478 22.5785 28.478 21.8472 28.1655C18.71 26.8248 16.6992 23.0758 16.6992 19.863ZM22.9992 22.0999C23.9933 22.0999 24.7992 21.294 24.7992 20.2999C24.7992 19.3058 23.9933 18.4999 22.9992 18.4999C22.0051 18.4999 21.1992 19.3058 21.1992 20.2999C21.1992 21.294 22.0051 22.0999 22.9992 22.0999Z" fill="white"/>
</svg>
