<svg width="46" height="46" viewBox="0 0 46 46" fill="none" xmlns="http://www.w3.org/2000/svg">
<rect width="46" height="46" rx="23" fill="#89A5DA"/>
<path d="M32 17.6667C32 19.1394 30.7912 20.3333 29.3 20.3333C27.8088 20.3333 26.6 19.1394 26.6 17.6667C26.6 16.1939 27.8088 15 29.3 15C30.7912 15 32 16.1939 32 17.6667Z" fill="white"/>
<path fill-rule="evenodd" clip-rule="evenodd" d="M24.8 16.7778H21.2C17.8059 16.7778 16.1088 16.7778 15.0544 17.8192C14 18.8606 14 20.5367 14 23.8889C14 27.2411 14 28.9172 15.0544 29.9586C16.1088 31 17.8059 31 21.2 31H24.8C28.1941 31 29.8912 31 30.9456 29.9586C32 28.9172 32 27.2411 32 23.8889C32 22.597 32 21.5541 31.9396 20.7004C31.2307 21.3027 30.3084 21.6667 29.3 21.6667C28.8692 21.6667 28.4541 21.6002 28.0646 21.4772L26.8553 22.4725C26.0576 23.1291 25.411 23.6613 24.8403 24.0238C24.2459 24.4014 23.667 24.6399 23 24.6399C22.333 24.6399 21.7541 24.4014 21.1597 24.0238C20.589 23.6613 19.9424 23.1291 19.1447 22.4725L17.1679 20.8455C16.8815 20.6098 16.8428 20.1894 17.0815 19.9065C17.3201 19.6237 17.7457 19.5855 18.0321 19.8212L19.9751 21.4204C20.8148 22.1114 21.3978 22.5897 21.8899 22.9023C22.3663 23.205 22.6894 23.3066 23 23.3066C23.3106 23.3066 23.6337 23.205 24.1101 22.9023C24.6022 22.5897 25.1852 22.1114 26.0249 21.4204L26.7804 20.7985C25.8478 20.0657 25.25 18.9351 25.25 17.6667C25.25 17.3612 25.2847 17.0638 25.3503 16.778C25.172 16.7778 24.9886 16.7778 24.8 16.7778Z" fill="white"/>
</svg>
