<svg width="18" height="18" viewBox="0 0 18 18" fill="none" xmlns="http://www.w3.org/2000/svg">
<path d="M0.75 8.54487C0.75 5.45053 0.75 3.90335 1.68726 2.94206C2.62452 1.98077 4.13301 1.98077 7.15 1.98077H10.35C13.367 1.98077 14.8755 1.98077 15.8127 2.94206C16.75 3.90335 16.75 5.45053 16.75 8.54487V10.1859C16.75 13.2802 16.75 14.8274 15.8127 15.7887C14.8755 16.75 13.367 16.75 10.35 16.75H7.15C4.13301 16.75 2.62452 16.75 1.68726 15.7887C0.75 14.8274 0.75 13.2802 0.75 10.1859V8.54487Z" stroke="white" stroke-width="1.5"/>
<path d="M4.75 1.98077V0.75" stroke="white" stroke-width="1.5" stroke-linecap="round"/>
<path d="M12.75 1.98077V0.75" stroke="white" stroke-width="1.5" stroke-linecap="round"/>
<path d="M1.15039 6.08331H16.3504" stroke="white" stroke-width="1.5" stroke-linecap="round"/>
<path d="M12.75 12.3271C12.9038 12.3271 13.0498 12.4584 13.0498 12.6474C13.0498 12.8364 12.9038 12.9677 12.75 12.9677C12.5962 12.9676 12.4502 12.8363 12.4502 12.6474C12.4502 12.4585 12.5962 12.3272 12.75 12.3271ZM12.75 9.04486C12.9038 9.04486 13.0497 9.17626 13.0498 9.36517C13.0498 9.5542 12.9038 9.68549 12.75 9.68549C12.5962 9.68537 12.4502 9.55412 12.4502 9.36517C12.4503 9.17634 12.5963 9.04497 12.75 9.04486Z" fill="#1C274C" stroke="white"/>
<path d="M8.75 12.3271C8.90382 12.3271 9.04979 12.4584 9.0498 12.6474C9.0498 12.8364 8.90383 12.9677 8.75 12.9677C8.59624 12.9676 8.4502 12.8363 8.4502 12.6474C8.45021 12.4585 8.59625 12.3272 8.75 12.3271ZM8.75 9.04486C8.90377 9.04486 9.0497 9.17626 9.0498 9.36517C9.0498 9.5542 8.90383 9.68549 8.75 9.68549C8.59624 9.68537 8.4502 9.55412 8.4502 9.36517C8.4503 9.17634 8.5963 9.04497 8.75 9.04486Z" fill="#1C274C" stroke="white"/>
<path d="M4.75 12.3271C4.90382 12.3271 5.04979 12.4584 5.0498 12.6474C5.0498 12.8364 4.90383 12.9677 4.75 12.9677C4.59624 12.9676 4.4502 12.8363 4.4502 12.6474C4.45021 12.4585 4.59625 12.3272 4.75 12.3271ZM4.75 9.04486C4.90377 9.04486 5.0497 9.17626 5.0498 9.36517C5.0498 9.5542 4.90383 9.68549 4.75 9.68549C4.59624 9.68537 4.4502 9.55412 4.4502 9.36517C4.4503 9.17634 4.5963 9.04497 4.75 9.04486Z" fill="#1C274C" stroke="white"/>
</svg>
