<svg width="324" height="157" viewBox="0 0 324 157" fill="none" xmlns="http://www.w3.org/2000/svg">
<path d="M230.374 2.47684C220.515 -0.825612 214.482 -0.825612 204.623 2.47684C180.572 10.5317 181.615 61.5051 189.047 111.798C170.231 64.5694 145.547 19.9597 120.704 25.0643C110.52 27.1579 105.301 30.1852 98.4313 37.99C81.9117 56.7586 107.42 99.362 138.49 138.664C99.1179 107.682 56.4597 82.2653 37.7281 98.8279C29.9395 105.714 26.9227 110.938 24.8527 121.127C19.8369 145.814 63.8607 170.234 110.771 188.898C60.8127 181.605 10.477 180.738 2.47684 204.625C-0.825612 214.483 -0.825612 220.517 2.47684 230.375C10.477 254.262 60.8127 253.395 110.771 246.102C63.8607 264.766 19.8354 289.186 24.8512 313.873C26.9227 324.062 29.9395 329.286 37.7281 336.172C56.4597 352.733 99.1193 327.32 138.49 296.336C107.42 335.639 81.9117 378.241 98.4328 397.01C105.303 404.815 110.521 407.842 120.704 409.936C145.549 415.042 170.233 370.429 189.05 323.201C181.617 373.493 180.574 424.468 204.625 432.523C214.483 435.826 220.517 435.826 230.375 432.523C254.426 424.468 253.383 373.492 245.95 323.198C264.767 370.428 289.451 415.042 314.296 409.936C324.48 407.842 329.699 404.815 336.569 397.01C353.088 378.241 327.58 335.639 296.51 296.336C335.882 327.32 378.54 352.733 397.272 336.172C405.062 329.286 408.079 324.062 410.149 313.873C415.166 289.186 371.141 264.766 324.23 246.102C374.187 253.395 424.523 254.262 432.523 230.375C435.826 220.517 435.826 214.483 432.523 204.625C424.523 180.738 374.187 181.605 324.23 188.898C371.141 170.234 415.165 145.814 410.149 121.127C408.077 110.938 405.062 105.714 397.272 98.8279C378.54 82.2653 335.881 107.68 296.509 138.664C327.579 99.362 353.088 56.7586 336.567 37.99C329.697 30.1852 324.48 27.1579 314.296 25.0643C289.451 19.9597 264.767 64.5709 245.95 111.801C253.383 61.5066 254.425 10.5317 230.374 2.47684Z" fill="white" fill-opacity="0.05"/>
</svg>
