<svg width="1046" height="196" viewBox="0 0 1046 196" fill="none" xmlns="http://www.w3.org/2000/svg">
<mask id="mask0_94_8323" style="mask-type:alpha" maskUnits="userSpaceOnUse" x="0" y="0" width="1046" height="196">
<rect width="1046" height="196" transform="matrix(-1 0 0 1 1046 0)" fill="#EFF2F8"/>
</mask>
<g mask="url(#mask0_94_8323)">
<path d="M307.027 -276.897C328.592 -281.339 341.277 -279.809 361.166 -270.366C409.689 -247.331 394.568 -140.428 366.188 -36.5757C417.725 -131.098 480.935 -218.627 531.873 -201.594C552.753 -194.61 562.957 -186.921 575.42 -168.77C605.392 -125.121 540.958 -42.0195 465.668 32.7312C556.302 -22.4223 652.434 -65.0398 687.615 -25.4676C702.244 -9.01496 707.261 2.73418 709.029 24.6797C713.314 77.8544 614.564 118.032 511.204 145.374C618.088 142.711 724.135 153.654 734.897 205.903C739.34 227.467 737.809 240.153 728.366 260.042C705.488 308.233 599.881 293.644 496.697 265.641C590.589 316.777 676.956 379.285 660.149 429.916C653.21 450.811 645.542 461.03 627.421 473.532C583.839 503.6 500.596 439.351 425.68 364.224C481.034 454.737 523.859 550.774 484.365 586.043C467.942 600.71 456.203 605.751 434.264 607.571C380.733 612.005 340.151 511.949 312.567 407.882C315.44 515.505 304.705 622.94 252.097 633.776C230.533 638.218 217.847 636.688 197.958 627.245C149.436 604.21 164.557 497.301 192.941 393.446C141.4 487.971 78.1891 575.509 27.2487 558.473C6.36844 551.488 -3.83536 543.8 -16.2991 525.649C-46.2705 481.999 18.1631 398.901 93.4535 324.147C2.81877 379.304 -93.3121 421.915 -128.494 382.346C-143.126 365.893 -148.143 354.144 -149.911 332.199C-154.199 279.023 -55.4454 238.846 47.9138 211.505C-58.9667 214.168 -165.014 203.225 -175.776 150.976C-180.219 129.411 -178.688 116.726 -169.245 96.8367C-146.367 48.6459 -40.7597 63.2346 62.4216 91.2373C-31.471 40.1013 -117.834 -22.4065 -101.028 -73.037C-94.089 -93.9322 -86.4243 -104.151 -68.2999 -116.653C-24.7175 -146.724 58.5256 -82.4719 133.444 -7.3447C78.0896 -97.855 35.2622 -193.895 74.7567 -229.165C91.1793 -243.832 102.916 -248.873 124.858 -250.692C178.388 -255.123 218.97 -155.071 246.554 -51.0007C243.681 -158.626 254.419 -266.061 307.027 -276.897Z" fill="#52668B" fill-opacity="0.05"/>
</g>
</svg>
