<svg width="1046" height="216" viewBox="0 0 1046 216" fill="none" xmlns="http://www.w3.org/2000/svg">
<mask id="mask0_94_8319" style="mask-type:alpha" maskUnits="userSpaceOnUse" x="0" y="0" width="1046" height="216">
<rect width="1046" height="216" fill="#EFF2F8"/>
</mask>
<g mask="url(#mask0_94_8319)">
<path d="M738.973 -266.897C717.408 -271.339 704.723 -269.809 684.834 -260.366C636.311 -237.331 651.432 -130.428 679.812 -26.5757C628.275 -121.098 565.065 -208.627 514.127 -191.594C493.247 -184.61 483.043 -176.921 470.58 -158.77C440.608 -115.121 505.042 -32.0195 580.332 42.7312C489.698 -12.4223 393.566 -55.0398 358.385 -15.4676C343.756 0.985041 338.739 12.7342 336.971 34.6797C332.686 87.8544 431.436 128.032 534.796 155.374C427.912 152.711 321.865 163.654 311.103 215.903C306.66 237.467 308.191 250.153 317.634 270.042C340.512 318.233 446.119 303.644 549.303 275.641C455.411 326.777 369.044 389.285 385.851 439.916C392.79 460.811 400.458 471.03 418.579 483.532C462.161 513.6 545.404 449.351 620.32 374.224C564.966 464.737 522.141 560.774 561.635 596.043C578.058 610.71 589.797 615.751 611.736 617.571C665.267 622.005 705.849 521.949 733.433 417.882C730.56 525.505 741.295 632.94 793.903 643.776C815.467 648.218 828.153 646.688 848.042 637.245C896.564 614.21 881.443 507.301 853.059 403.446C904.6 497.971 967.811 585.509 1018.75 568.473C1039.63 561.488 1049.84 553.8 1062.3 535.649C1092.27 491.999 1027.84 408.901 952.547 334.147C1043.18 389.304 1139.31 431.915 1174.49 392.346C1189.13 375.893 1194.14 364.144 1195.91 342.199C1200.2 289.023 1101.45 248.846 998.086 221.505C1104.97 224.168 1211.01 213.225 1221.78 160.976C1226.22 139.411 1224.69 126.726 1215.24 106.837C1192.37 58.6459 1086.76 73.2346 983.578 101.237C1077.47 50.1013 1163.83 -12.4065 1147.03 -63.037C1140.09 -83.9322 1132.42 -94.1515 1114.3 -106.653C1070.72 -136.724 987.474 -72.4719 912.556 2.6553C967.91 -87.855 1010.74 -183.895 971.243 -219.165C954.821 -233.832 943.084 -238.873 921.142 -240.692C867.612 -245.123 827.03 -145.071 799.446 -41.0007C802.319 -148.626 791.581 -256.061 738.973 -266.897Z" fill="white" fill-opacity="0.08"/>
</g>
</svg>
