<svg width="50" height="50" viewBox="0 0 50 50" fill="none" xmlns="http://www.w3.org/2000/svg">
<circle cx="25" cy="25" r="25" fill="#52668B"/>
<path d="M24.9141 13.0019C24.7591 13.007 24.6046 13.0224 24.4512 13.0478C23.2829 13.242 22.2582 14.0119 21.6672 15.1397L19.2207 19.8104C19.6845 19.198 20.335 18.7933 21.0503 18.672C21.1677 18.6526 21.2861 18.641 21.4047 18.6372C22.4975 18.6012 23.52 19.2294 24.0668 20.2729L30.2547 32.0865C30.7855 33.1001 30.7854 34.3489 30.2544 35.3624C29.7234 36.3759 28.7422 37.0002 27.6805 37H33.1168C34.5041 36.9997 35.786 36.1838 36.4797 34.8594C37.1733 33.535 37.1734 31.9034 36.4799 30.5789L28.3939 15.1396C27.6791 13.7757 26.3425 12.9546 24.9141 13.0019Z" fill="white"/>
<path d="M20.1462 29.9358C20.9313 30.7095 21.3723 31.759 21.3723 32.8532C21.3723 33.9475 20.9313 34.9969 20.1462 35.7707C19.3612 36.5444 18.2964 36.9791 17.1862 36.9791C16.0759 36.9791 15.0112 36.5444 14.2261 35.7707C13.441 34.9969 13 33.9475 13 32.8532C13 31.759 13.441 30.7095 14.2261 29.9358C15.0112 29.162 16.0759 28.7273 17.1862 28.7273C18.2964 28.7273 19.3612 29.162 20.1462 29.9358Z" fill="white"/>
</svg>
