<svg width="82" height="82" viewBox="0 0 82 82" fill="none" xmlns="http://www.w3.org/2000/svg">
<circle cx="41" cy="41" r="41" fill="white"/>
<path d="M40.8591 21.3235C40.605 21.3319 40.3515 21.357 40.1001 21.3987C38.1839 21.7171 36.5035 22.9798 35.5342 24.8294L31.522 32.4894C32.2826 31.4851 33.3495 30.8213 34.5225 30.6224C34.7151 30.5906 34.9092 30.5715 35.1038 30.5653C36.8959 30.5062 38.5728 31.5366 39.4696 33.2479L49.6177 52.6222C50.4882 54.2845 50.488 56.3325 49.6172 57.9947C48.7464 59.6568 47.1373 60.6806 45.396 60.6803H54.3116C56.5868 60.6799 58.6891 59.3417 59.8267 57.1698C60.9643 54.9978 60.9644 52.3218 59.8271 50.1497L46.566 24.8293C45.3937 22.5924 43.2017 21.2458 40.8591 21.3235Z" fill="#2E3036"/>
<path d="M33.0399 49.0952C34.3274 50.3641 35.0507 52.0852 35.0507 53.8798C35.0507 55.6744 34.3274 57.3955 33.0399 58.6644C31.7524 59.9334 30.0062 60.6463 28.1854 60.6463C26.3646 60.6463 24.6184 59.9334 23.3309 58.6644C22.0434 57.3955 21.3201 55.6744 21.3201 53.8798C21.3201 52.0852 22.0434 50.3641 23.3309 49.0952C24.6184 47.8262 26.3646 47.1133 28.1854 47.1133C30.0062 47.1133 31.7524 47.8262 33.0399 49.0952Z" fill="#2E3036"/>
</svg>
