<svg width="22" height="18" viewBox="0 0 22 18" fill="none" xmlns="http://www.w3.org/2000/svg">
<path d="M13.2 0H8.8C4.65164 0 2.57746 0 1.28873 1.31802C0.360835 2.267 0.101031 3.63243 0.0282881 5.90625H21.9717C21.899 3.63243 21.6392 2.267 20.7113 1.31802C19.4225 0 17.3484 0 13.2 0Z" fill="white"/>
<path d="M8.8 18H13.2C17.3484 18 19.4225 18 20.7113 16.682C22 15.364 22 13.2426 22 9C22 8.50283 22 8.03478 21.9979 7.59375H0.00207382C0 8.03478 0 8.50283 0 9C0 13.2426 0 15.364 1.28873 16.682C2.57746 18 4.65164 18 8.8 18Z" fill="white"/>
<path fill-rule="evenodd" clip-rule="evenodd" d="M3.575 13.5C3.575 13.034 3.94437 12.6562 4.4 12.6562H8.8C9.25564 12.6562 9.625 13.034 9.625 13.5C9.625 13.966 9.25564 14.3438 8.8 14.3438H4.4C3.94437 14.3438 3.575 13.966 3.575 13.5Z" fill="#EFF2F8"/>
<path fill-rule="evenodd" clip-rule="evenodd" d="M10.725 13.5C10.725 13.034 11.0944 12.6562 11.55 12.6562H13.2C13.6556 12.6562 14.025 13.034 14.025 13.5C14.025 13.966 13.6556 14.3438 13.2 14.3438H11.55C11.0944 14.3438 10.725 13.966 10.725 13.5Z" fill="#EFF2F8"/>
</svg>
