<svg width="20" height="20" viewBox="0 0 20 20" fill="none" xmlns="http://www.w3.org/2000/svg">
<path d="M0.71663 0.0359316C0.473069 0.110734 0.257612 0.279037 0.126464 0.494093L0 0.713823V4.50066V8.2875L0.117096 8.49788C0.18267 8.61009 0.32787 8.76904 0.435599 8.84852L0.641688 8.98877L4.39346 9.0028C7.03984 9.01215 8.20143 9.0028 8.3279 8.9654C8.42626 8.93734 8.59019 8.83917 8.68855 8.75034C9.03516 8.43711 9.02111 8.64281 9.00706 4.42119L8.993 0.653047L8.85249 0.447342C8.77286 0.339814 8.61361 0.194885 8.5012 0.129434L8.29043 0.0125561L4.56676 0.00320625C2.51991 -0.00146866 0.786888 0.0125561 0.71663 0.0359316ZM5.27402 3.07943C5.51758 3.15423 5.77988 3.37864 5.88292 3.60772C5.95318 3.76667 5.97192 3.91627 5.97192 4.50066C5.97192 5.27673 5.92508 5.45906 5.66278 5.70217C5.41454 5.93592 5.24123 5.97332 4.48713 5.97332C3.69088 5.97332 3.51289 5.9219 3.26933 5.62269C3.05387 5.36556 3.01172 5.14115 3.03045 4.40249C3.04451 3.79472 3.05387 3.73862 3.17097 3.53292C3.30212 3.31786 3.51758 3.14956 3.76114 3.07475C3.95317 3.01398 5.07262 3.01865 5.27402 3.07943Z" fill="white"/>
<path d="M11.6777 0.0546322C11.4107 0.148134 11.2795 0.250987 11.1343 0.466043L11.0079 0.662396L10.9938 4.42586C10.9798 8.63814 10.9657 8.43711 11.3123 8.75034C11.4107 8.83917 11.5746 8.93734 11.673 8.9654C11.7995 9.0028 12.961 9.01215 15.6074 9.0028L19.3592 8.98877L19.5653 8.84852C19.673 8.76904 19.8182 8.61009 19.8838 8.49788L20.0009 8.2875V4.50066V0.713823L19.8697 0.494093C19.7854 0.349164 19.6636 0.227612 19.5184 0.143459L19.2983 0.0125561L15.5746 0.00320625C12.5489 -0.00614452 11.8182 0.00320625 11.6777 0.0546322ZM16.4739 3.18228C16.6191 3.26643 16.7409 3.38799 16.8252 3.53292C16.947 3.73862 16.9564 3.79005 16.9704 4.40249C16.9892 5.14115 16.947 5.36556 16.7316 5.62269C16.488 5.9219 16.31 5.97332 15.5137 5.97332C14.7596 5.97332 14.5863 5.93592 14.3381 5.70217C14.0758 5.45906 14.029 5.27673 14.029 4.50066C14.029 3.69654 14.0852 3.50954 14.3756 3.28046C14.6566 3.05605 14.7878 3.028 15.5512 3.04203C16.2257 3.05138 16.2632 3.05605 16.4739 3.18228Z" fill="white"/>
<path d="M0.632321 11.0287C0.426231 11.1129 0.210774 11.3045 0.103045 11.5056L0 11.7019V15.4888V19.2756L0.131148 19.4953C0.215457 19.6403 0.337238 19.7618 0.482437 19.846L0.702579 19.9769H4.4965H8.29043L8.5012 19.86C8.61361 19.7945 8.77286 19.6496 8.85249 19.5421L8.99301 19.3364L9.00706 15.5916C9.01643 12.9736 9.00706 11.7908 8.96959 11.6645C8.90401 11.4354 8.66514 11.169 8.43094 11.0661C8.25296 10.9866 8.02345 10.9773 4.4965 10.982C2.14989 10.982 0.707262 11.0007 0.632321 11.0287ZM5.38644 14.1049C5.48948 14.1517 5.63 14.2499 5.70025 14.3247C5.93445 14.5724 5.97192 14.7454 5.97192 15.4981C5.97192 16.2929 5.9204 16.4705 5.62063 16.7136C5.36302 16.9287 5.13819 16.9708 4.39814 16.9521C3.78456 16.938 3.73303 16.9287 3.52694 16.8071C3.38175 16.723 3.25996 16.6014 3.17566 16.4565C3.05387 16.2508 3.04451 16.1994 3.03046 15.5869C3.01172 14.8483 3.05387 14.6239 3.26933 14.3667C3.51289 14.0675 3.69088 14.0161 4.4965 14.0161C5.08198 14.0161 5.23187 14.0348 5.38644 14.1049Z" fill="white"/>
<path d="M11.5692 11.0614C11.335 11.1689 11.0961 11.4354 11.0306 11.6645C10.9978 11.7767 10.9837 12.1273 10.9931 12.5995L11.0071 13.3522L11.1477 13.5579C11.2273 13.6701 11.3865 13.8103 11.4989 13.8758C11.691 13.9833 11.7706 13.9927 12.3561 14.0067L12.9978 14.0254V15.1428C12.9978 16.4004 13.0165 16.4892 13.3491 16.765C13.5926 16.966 13.7987 17.0081 14.4966 17.0081C15.1945 17.0081 15.4006 16.966 15.6442 16.765C15.9861 16.4845 15.9954 16.4237 15.9954 14.9604V13.6514L15.8456 13.427C15.7612 13.3008 15.6067 13.1512 15.5036 13.0951C15.335 13.0016 15.2507 12.9875 14.6746 12.9875H14.0376L14.0189 12.3424C14.0048 11.7626 13.9954 11.6832 13.8877 11.4915C13.8221 11.3793 13.6816 11.2203 13.5692 11.1409L13.3631 11.0006L12.5622 10.9866C11.8596 10.9772 11.7331 10.9866 11.5692 11.0614Z" fill="white"/>
<path d="M16.5258 11.094C16.3759 11.1688 16.2354 11.2857 16.1558 11.4072C16.02 11.5989 16.02 11.6036 16.0059 12.4311C15.9872 13.3708 16.0246 13.5017 16.3478 13.7728C16.5914 13.9739 16.7975 14.0159 17.4954 14.0159C18.1933 14.0159 18.3994 13.9739 18.6429 13.7728C18.9661 13.5017 19.0036 13.3708 18.9848 12.4311C18.9708 11.6036 18.9708 11.5989 18.835 11.4072C18.7553 11.2857 18.6148 11.1688 18.4649 11.094C18.2401 10.9818 18.1839 10.9771 17.4954 10.9771C16.8068 10.9771 16.7506 10.9818 16.5258 11.094Z" fill="white"/>
<path d="M11.5692 17.0456C11.335 17.1531 11.0961 17.4196 11.0306 17.6487C10.9978 17.7609 10.9837 18.1115 10.9931 18.5837L11.0071 19.3364L11.1477 19.5421C11.2273 19.6543 11.3865 19.7945 11.4989 19.86C11.7003 19.9722 11.7425 19.9769 12.506 19.9769C13.3725 19.9769 13.4474 19.9582 13.7191 19.6917C13.9861 19.4205 14.0048 19.3457 14.0048 18.4808C14.0048 17.7188 14.0001 17.6767 13.8877 17.4757C13.8221 17.3635 13.6816 17.2045 13.5692 17.1251L13.3631 16.9848L12.5622 16.9708C11.8596 16.9614 11.7331 16.9708 11.5692 17.0456Z" fill="white"/>
<path d="M16.5258 17.0784C16.3759 17.1532 16.2354 17.27 16.1558 17.3916C16.02 17.5833 16.02 17.588 16.0059 18.4154C15.9872 19.3551 16.0246 19.486 16.3478 19.7572C16.5914 19.9582 16.7975 20.0003 17.4954 20.0003C18.1933 20.0003 18.3994 19.9582 18.6429 19.7572C18.9661 19.486 19.0036 19.3551 18.9848 18.4154C18.9708 17.588 18.9708 17.5833 18.835 17.3916C18.7553 17.27 18.6148 17.1532 18.4649 17.0784C18.2401 16.9662 18.1839 16.9615 17.4954 16.9615C16.8068 16.9615 16.7506 16.9662 16.5258 17.0784Z" fill="white"/>
</svg>
