<svg width="50" height="50" viewBox="0 0 50 50" fill="none" xmlns="http://www.w3.org/2000/svg">
<rect width="50" height="50" rx="25" fill="#EFF2F8"/>
<path d="M28 22L32 18M32 18V21M32 18H29" stroke="#52668B" stroke-width="1.5" stroke-linecap="round" stroke-linejoin="round"/>
<path d="M28.5562 27.5477L28.1007 28.0272C28.1007 28.0272 27.0181 29.167 24.0631 26.0559C21.1081 22.9448 22.1907 21.8051 22.1907 21.8051L22.4775 21.5031C23.1841 20.7592 23.2507 19.565 22.6342 18.6931L21.3733 16.9096C20.6103 15.8305 19.136 15.6879 18.2615 16.6086L16.6918 18.2611C16.2582 18.7177 15.9677 19.3095 16.0029 19.9659C16.093 21.6455 16.8107 25.259 20.8154 29.4752C25.0621 33.9462 29.0468 34.1239 30.6763 33.9631C31.1917 33.9122 31.6399 33.6343 32.0011 33.254L33.4217 31.7584C34.3806 30.7489 34.1102 29.0182 32.8833 28.312L30.9728 27.2123C30.1672 26.7486 29.1858 26.8848 28.5562 27.5477Z" fill="#52668B"/>
</svg>
