<svg width="1467" height="124" viewBox="0 0 1467 124" fill="none" xmlns="http://www.w3.org/2000/svg">
<path d="M130.75 61.75H445.75" stroke="#52668B" stroke-width="1.5" stroke-miterlimit="10" stroke-linecap="round"/>
<path d="M575.75 61.75H890.75" stroke="#52668B" stroke-width="1.5" stroke-miterlimit="10" stroke-linecap="round"/>
<path d="M1020.75 61.75H1335.75" stroke="#52668B" stroke-width="1.5" stroke-miterlimit="10" stroke-linecap="round"/>
<path d="M126.343 66.1862C128.777 66.1862 130.75 64.2 130.75 61.7498C130.75 59.2997 128.777 57.3135 126.343 57.3135C123.91 57.3135 121.937 59.2997 121.937 61.7498C121.937 64.2 123.91 66.1862 126.343 66.1862Z" stroke="#52668B" stroke-width="1.5" stroke-miterlimit="10" stroke-linecap="round"/>
<path d="M5.15678 66.1862C7.59058 66.1862 9.56356 64.2 9.56356 61.7498C9.56356 59.2997 7.59058 57.3135 5.15678 57.3135C2.72298 57.3135 0.75 59.2997 0.75 61.7498C0.75 64.2 2.72298 66.1862 5.15678 66.1862Z" stroke="#52668B" stroke-width="1.5" stroke-miterlimit="10" stroke-linecap="round"/>
<path d="M5.15674 57.3128C7.52596 25.6763 33.7492 0.75 65.7499 0.75C97.7506 0.75 123.974 25.6768 126.343 57.3136" stroke="#52668B" stroke-width="1.5" stroke-miterlimit="10"/>
<path d="M126.343 66.1872C123.974 97.8237 97.7508 122.75 65.7501 122.75C33.7494 122.75 7.52566 97.8232 5.15681 66.1864" stroke="#52668B" stroke-width="1.5" stroke-miterlimit="10" stroke-dasharray="8 8"/>
<path d="M1016.34 66.1862C1018.78 66.1862 1020.75 64.2 1020.75 61.7498C1020.75 59.2997 1018.78 57.3135 1016.34 57.3135C1013.91 57.3135 1011.94 59.2997 1011.94 61.7498C1011.94 64.2 1013.91 66.1862 1016.34 66.1862Z" stroke="#52668B" stroke-width="1.5" stroke-miterlimit="10" stroke-linecap="round"/>
<path d="M895.157 66.1862C897.591 66.1862 899.564 64.2 899.564 61.7498C899.564 59.2997 897.591 57.3135 895.157 57.3135C892.723 57.3135 890.75 59.2997 890.75 61.7498C890.75 64.2 892.723 66.1862 895.157 66.1862Z" stroke="#52668B" stroke-width="1.5" stroke-miterlimit="10" stroke-linecap="round"/>
<path d="M895.157 57.3128C897.526 25.6763 923.749 0.75 955.75 0.75C987.751 0.75 1013.97 25.6768 1016.34 57.3136" stroke="#52668B" stroke-width="1.5" stroke-miterlimit="10"/>
<path d="M1016.34 66.1872C1013.97 97.8237 987.751 122.75 955.75 122.75C923.749 122.75 897.526 97.8232 895.157 66.1864" stroke="#52668B" stroke-width="1.5" stroke-miterlimit="10" stroke-dasharray="8 8"/>
<path d="M450.157 57.3138C447.723 57.3138 445.75 59.3 445.75 61.7502C445.75 64.2003 447.723 66.1865 450.157 66.1865C452.591 66.1865 454.564 64.2003 454.564 61.7502C454.564 59.3 452.591 57.3138 450.157 57.3138Z" stroke="#52668B" stroke-width="1.5" stroke-miterlimit="10" stroke-linecap="round"/>
<path d="M571.343 57.3138C568.909 57.3138 566.936 59.3 566.936 61.7502C566.936 64.2003 568.909 66.1865 571.343 66.1865C573.777 66.1865 575.75 64.2003 575.75 61.7502C575.75 59.3 573.777 57.3138 571.343 57.3138Z" stroke="#52668B" stroke-width="1.5" stroke-miterlimit="10" stroke-linecap="round"/>
<path d="M571.343 66.1871C568.974 97.8237 542.751 122.75 510.75 122.75C478.749 122.75 452.526 97.8232 450.157 66.1864" stroke="#52668B" stroke-width="1.5" stroke-miterlimit="10"/>
<path d="M450.157 57.3128C452.526 25.6763 478.749 0.750005 510.75 0.750011C542.751 0.750016 568.974 25.6768 571.343 57.3136" stroke="#52668B" stroke-width="1.5" stroke-miterlimit="10" stroke-dasharray="8 8"/>
<path d="M1340.16 57.3138C1337.72 57.3138 1335.75 59.3 1335.75 61.7502C1335.75 64.2003 1337.72 66.1865 1340.16 66.1865C1342.59 66.1865 1344.56 64.2003 1344.56 61.7502C1344.56 59.3 1342.59 57.3138 1340.16 57.3138Z" stroke="#52668B" stroke-width="1.5" stroke-miterlimit="10" stroke-linecap="round"/>
<path d="M1461.34 57.3138C1458.91 57.3138 1456.94 59.3 1456.94 61.7502C1456.94 64.2003 1458.91 66.1865 1461.34 66.1865C1463.78 66.1865 1465.75 64.2003 1465.75 61.7502C1465.75 59.3 1463.78 57.3138 1461.34 57.3138Z" stroke="#52668B" stroke-width="1.5" stroke-miterlimit="10" stroke-linecap="round"/>
<path d="M1461.34 66.1871C1458.97 97.8237 1432.75 122.75 1400.75 122.75C1368.75 122.75 1342.53 97.8232 1340.16 66.1864" stroke="#52668B" stroke-width="1.5" stroke-miterlimit="10"/>
<path d="M1340.16 57.3128C1342.53 25.6763 1368.75 0.750005 1400.75 0.750011C1432.75 0.750016 1458.97 25.6768 1461.34 57.3136" stroke="#52668B" stroke-width="1.5" stroke-miterlimit="10" stroke-dasharray="8 8"/>
<path fill-rule="evenodd" clip-rule="evenodd" d="M525.75 53.3502V69.9046C525.75 71.5022 525.066 73.0266 523.865 74.1067C520.579 77.0618 516.512 78.7079 512.357 79.0448V81.1751C512.357 82.0449 511.638 82.7501 510.75 82.7501C509.862 82.7501 509.143 82.0449 509.143 81.1751V79.0448C504.988 78.7079 500.921 77.0618 497.635 74.1067C496.434 73.0266 495.75 71.5022 495.75 69.9046V53.3502C495.75 49.3904 495.75 47.4105 497.005 46.1803C498.261 44.9502 500.281 44.9502 504.321 44.9502H517.179C521.219 44.9502 523.239 44.9502 524.495 46.1803C525.75 47.4105 525.75 49.3904 525.75 53.3502ZM510.75 63.85C513.117 63.85 515.036 61.8912 515.036 59.475C515.036 57.9632 513.358 55.9454 512.102 54.6466C511.358 53.8778 510.142 53.8778 509.398 54.6466C508.142 55.9454 506.464 57.9632 506.464 59.475C506.464 61.8912 508.383 63.85 510.75 63.85ZM504.857 70.1501C504.857 69.2803 505.577 68.5751 506.464 68.5751H515.036C515.923 68.5751 516.643 69.2803 516.643 70.1501C516.643 71.02 515.923 71.7251 515.036 71.7251H506.464C505.577 71.7251 504.857 71.02 504.857 70.1501Z" fill="#52668B"/>
<path d="M514.462 42.85C513.721 41.5946 512.336 40.75 510.75 40.75C509.164 40.75 507.779 41.5946 507.038 42.85L514.462 42.85Z" fill="#52668B"/>
<ellipse cx="954.683" cy="49.75" rx="8.53332" ry="8.00003" fill="#52668B"/>
<path fill-rule="evenodd" clip-rule="evenodd" d="M964.283 81.75C960.763 81.75 959.004 81.7501 957.91 80.7249C956.817 79.6998 956.817 78.0499 956.817 74.75C956.817 71.4502 956.817 69.8003 957.91 68.7751C959.004 67.75 960.763 67.75 964.283 67.75C967.803 67.75 969.563 67.75 970.656 68.7751C971.75 69.8003 971.75 71.4502 971.75 74.75C971.75 78.0499 971.75 79.6998 970.656 80.7249C969.563 81.7501 967.803 81.75 964.283 81.75ZM968.482 73.2416C968.968 72.786 968.968 72.0473 968.482 71.5917C967.996 71.1361 967.208 71.1361 966.722 71.5917L962.624 75.4334L961.845 74.7028C961.359 74.2472 960.571 74.2472 960.085 74.7028C959.599 75.1585 959.599 75.8972 960.085 76.3528L961.744 77.9083C962.23 78.3639 963.018 78.3639 963.504 77.9083L968.482 73.2416Z" fill="#52668B"/>
<path d="M961.968 64.7648C959.813 64.1185 957.329 63.75 954.683 63.75C946.436 63.75 939.75 67.3317 939.75 71.75C939.75 76.0312 946.027 79.5269 953.92 79.7398C953.862 79.4872 953.817 79.2365 953.782 78.9902C953.616 77.8348 953.616 76.4231 953.617 74.922V74.5781C953.616 73.077 953.616 71.6653 953.782 70.5098C953.966 69.224 954.407 67.8167 955.647 66.6538C956.888 65.4909 958.389 65.0777 959.76 64.9049C960.426 64.821 961.171 64.7825 961.968 64.7648Z" fill="#52668B"/>
<path d="M1418.75 49.15C1418.75 52.1323 1416.33 54.55 1413.35 54.55C1410.37 54.55 1407.95 52.1323 1407.95 49.15C1407.95 46.1677 1410.37 43.75 1413.35 43.75C1416.33 43.75 1418.75 46.1677 1418.75 49.15Z" fill="#52668B"/>
<path fill-rule="evenodd" clip-rule="evenodd" d="M1400.75 43.75C1403.27 43.75 1405.41 43.75 1407.25 43.8189C1406.01 45.2434 1405.25 47.1085 1405.25 49.15C1405.25 53.6235 1408.88 57.25 1413.35 57.25C1415.39 57.25 1417.26 56.4948 1418.68 55.2484C1418.75 57.088 1418.75 59.2322 1418.75 61.75C1418.75 70.2353 1418.75 74.4779 1416.11 77.114C1413.48 79.75 1409.24 79.75 1400.75 79.75C1392.26 79.75 1388.02 79.75 1385.39 77.114C1382.75 74.4779 1382.75 70.2353 1382.75 61.75C1382.75 53.2647 1382.75 49.0221 1385.39 46.386C1388.02 43.75 1392.26 43.75 1400.75 43.75ZM1405.25 59.5C1404.5 59.5 1403.9 58.8956 1403.9 58.15C1403.9 57.4044 1404.5 56.8 1405.25 56.8H1409.75C1410.5 56.8 1411.1 57.4044 1411.1 58.15V62.65C1411.1 63.3956 1410.5 64 1409.75 64C1409 64 1408.4 63.3956 1408.4 62.65V61.4092L1404.78 65.0318C1403.55 66.262 1401.55 66.2619 1400.32 65.0318L1397.47 62.1774C1397.29 62.0016 1397.01 62.0016 1396.83 62.1774L1392.7 66.3046C1392.18 66.8318 1391.32 66.8318 1390.8 66.3046C1390.27 65.7774 1390.27 64.9226 1390.8 64.3954L1394.92 60.2682C1396.15 59.038 1398.15 59.038 1399.38 60.2682L1402.23 63.1226C1402.41 63.2983 1402.69 63.2983 1402.87 63.1226L1406.49 59.5H1405.25Z" fill="#52668B"/>
<path d="M74.256 68.7496L74.2561 68.7496L81.3794 61.6262C81.5516 61.454 81.4728 61.1574 81.2427 61.0776C80.4019 60.7859 79.3081 60.2382 78.2849 59.215C77.2618 58.1919 76.7141 57.0981 76.4224 56.2573C76.3425 56.0272 76.0459 55.9484 75.8737 56.1206L68.7504 63.2439C68.179 63.8153 67.8933 64.101 67.6476 64.416C67.3578 64.7876 67.1093 65.1897 66.9065 65.6151C66.7347 65.9757 66.6069 66.359 66.3514 67.1256L66.0212 68.1162L65.4961 69.6912L65.0039 71.1681C64.8781 71.5454 64.9763 71.9613 65.2575 72.2425C65.5387 72.5237 65.9546 72.6218 66.3318 72.4961L67.8087 72.0038L69.3838 71.4788L70.3743 71.1486L70.3744 71.1486C71.141 70.8931 71.5242 70.7653 71.8849 70.5934C72.3103 70.3907 72.7124 70.1422 73.084 69.8524C73.399 69.6067 73.6847 69.321 74.256 68.7496Z" fill="#52668B"/>
<path d="M83.6097 59.3959C85.13 57.8756 85.13 55.4106 83.6097 53.8903C82.0893 52.3699 79.6244 52.3699 78.104 53.8903L77.875 54.1193C77.8667 54.1276 77.8874 54.1068 77.8833 54.1111C77.6756 54.3237 77.5634 54.6816 77.6124 54.9747C77.6133 54.9796 77.6084 54.9527 77.6084 54.9527L77.6091 54.9565C77.6438 55.15 77.7082 55.433 77.8253 55.7705C78.0596 56.4456 78.5019 57.3319 79.335 58.165C80.1681 58.9981 81.0543 59.4404 81.7294 59.6746C82.067 59.7917 82.3499 59.8561 82.5434 59.8908L82.5472 59.8915C82.5472 59.8915 82.5204 59.8867 82.5252 59.8875C82.8184 59.9365 83.1762 59.8243 83.3889 59.6167C83.3931 59.6125 83.3724 59.6332 83.3807 59.6249L83.6097 59.3959Z" fill="#52668B"/>
<path fill-rule="evenodd" clip-rule="evenodd" d="M50.8588 45.8588C48.75 47.9677 48.75 51.3618 48.75 58.15V65.35C48.75 72.1382 48.75 75.5323 50.8588 77.6412C52.9677 79.75 56.3618 79.75 63.15 79.75H66.75C73.5382 79.75 76.9323 79.75 79.0412 77.6412C81.1162 75.5662 81.1495 72.2468 81.15 65.6741L76.0771 70.7471C75.5915 71.233 75.1938 71.631 74.7446 71.9813C74.2184 72.3918 73.649 72.7437 73.0466 73.0308C72.5324 73.2758 71.9986 73.4536 71.3468 73.6705L67.1858 75.0575C65.8383 75.5067 64.3528 75.156 63.3484 74.1517C62.3441 73.1473 61.9934 71.6618 62.4425 70.3143L62.9348 68.8374L63.79 66.2718L63.8295 66.1534C64.0465 65.5015 64.2242 64.9677 64.4693 64.4535C64.7564 63.851 65.1083 63.2817 65.5187 62.7554C65.8691 62.3063 66.2671 61.9086 66.753 61.423L73.9646 54.2114L75.966 52.2101L76.195 51.9811C77.4827 50.6933 79.1706 50.0497 80.8583 50.05C80.586 48.195 80.0594 46.8771 79.0412 45.8588C76.9323 43.75 73.5382 43.75 66.75 43.75H63.15C56.3618 43.75 52.9677 43.75 50.8588 45.8588ZM56.4 56.35C56.4 55.6044 57.0044 55 57.75 55H69.45C70.1956 55 70.8 55.6044 70.8 56.35C70.8 57.0956 70.1956 57.7 69.45 57.7H57.75C57.0044 57.7 56.4 57.0956 56.4 56.35ZM56.4 63.55C56.4 62.8044 57.0044 62.2 57.75 62.2H62.25C62.9956 62.2 63.6 62.8044 63.6 63.55C63.6 64.2956 62.9956 64.9 62.25 64.9H57.75C57.0044 64.9 56.4 64.2956 56.4 63.55ZM56.4 70.75C56.4 70.0044 57.0044 69.4 57.75 69.4H60.45C61.1956 69.4 61.8 70.0044 61.8 70.75C61.8 71.4956 61.1956 72.1 60.45 72.1H57.75C57.0044 72.1 56.4 71.4956 56.4 70.75Z" fill="#52668B"/>
</svg>
