<svg width="104" height="16" viewBox="0 0 104 16" fill="none" xmlns="http://www.w3.org/2000/svg">
<path d="M5.72253 2.7267C6.73585 0.9089 7.24251 0 8 0C8.75749 0 9.26415 0.9089 10.2775 2.7267L10.5396 3.19699C10.8276 3.71355 10.9716 3.97183 11.196 4.14225C11.4205 4.31266 11.7001 4.37592 12.2593 4.50244L12.7684 4.61762C14.7361 5.06284 15.72 5.28545 15.9541 6.03819C16.1881 6.79092 15.5174 7.57526 14.1759 9.14394L13.8289 9.54978C13.4477 9.99555 13.2571 10.2184 13.1713 10.4942C13.0856 10.7699 13.1144 11.0673 13.172 11.662L13.2245 12.2035C13.4273 14.2965 13.5287 15.343 12.9159 15.8082C12.3031 16.2734 11.3819 15.8492 9.53946 15.0009L9.06281 14.7815C8.53926 14.5404 8.27748 14.4199 8 14.4199C7.72252 14.4199 7.46074 14.5404 6.93719 14.7815L6.46054 15.0009C4.61814 15.8492 3.69694 16.2734 3.08412 15.8082C2.4713 15.343 2.5727 14.2965 2.77552 12.2035L2.82799 11.662C2.88562 11.0673 2.91444 10.7699 2.82869 10.4942C2.74294 10.2184 2.55234 9.99555 2.17113 9.54978L1.82408 9.14394C0.482599 7.57526 -0.18814 6.79092 0.0459368 6.03819C0.280014 5.28545 1.26389 5.06284 3.23163 4.61762L3.74071 4.50244C4.29988 4.37592 4.57947 4.31266 4.80395 4.14225C5.02844 3.97183 5.17242 3.71355 5.46037 3.19699L5.72253 2.7267Z" fill="#E5B95A"/>
<path d="M27.7225 2.7267C28.7359 0.9089 29.2425 0 30 0C30.7575 0 31.2641 0.9089 32.2775 2.7267L32.5396 3.19699C32.8276 3.71355 32.9716 3.97183 33.196 4.14225C33.4205 4.31266 33.7001 4.37592 34.2593 4.50244L34.7684 4.61762C36.7361 5.06284 37.72 5.28545 37.9541 6.03819C38.1881 6.79092 37.5174 7.57526 36.1759 9.14394L35.8289 9.54978C35.4477 9.99555 35.2571 10.2184 35.1713 10.4942C35.0856 10.7699 35.1144 11.0673 35.172 11.662L35.2245 12.2035C35.4273 14.2965 35.5287 15.343 34.9159 15.8082C34.3031 16.2734 33.3819 15.8492 31.5395 15.0009L31.0628 14.7815C30.5393 14.5404 30.2775 14.4199 30 14.4199C29.7225 14.4199 29.4607 14.5404 28.9372 14.7815L28.4605 15.0009C26.6181 15.8492 25.6969 16.2734 25.0841 15.8082C24.4713 15.343 24.5727 14.2965 24.7755 12.2035L24.828 11.662C24.8856 11.0673 24.9144 10.7699 24.8287 10.4942C24.7429 10.2184 24.5523 9.99555 24.1711 9.54978L23.8241 9.14394C22.4826 7.57526 21.8119 6.79092 22.0459 6.03819C22.28 5.28545 23.2639 5.06284 25.2316 4.61762L25.7407 4.50244C26.2999 4.37592 26.5795 4.31266 26.804 4.14225C27.0284 3.97183 27.1724 3.71355 27.4604 3.19699L27.7225 2.7267Z" fill="#E5B95A"/>
<path d="M49.7225 2.7267C50.7359 0.9089 51.2425 0 52 0C52.7575 0 53.2641 0.9089 54.2775 2.7267L54.5396 3.19699C54.8276 3.71355 54.9716 3.97183 55.196 4.14225C55.4205 4.31266 55.7001 4.37592 56.2593 4.50244L56.7684 4.61762C58.7361 5.06284 59.72 5.28545 59.9541 6.03819C60.1881 6.79092 59.5174 7.57526 58.1759 9.14394L57.8289 9.54978C57.4477 9.99555 57.2571 10.2184 57.1713 10.4942C57.0856 10.7699 57.1144 11.0673 57.172 11.662L57.2245 12.2035C57.4273 14.2965 57.5287 15.343 56.9159 15.8082C56.3031 16.2734 55.3819 15.8492 53.5395 15.0009L53.0628 14.7815C52.5393 14.5404 52.2775 14.4199 52 14.4199C51.7225 14.4199 51.4607 14.5404 50.9372 14.7815L50.4605 15.0009C48.6181 15.8492 47.6969 16.2734 47.0841 15.8082C46.4713 15.343 46.5727 14.2965 46.7755 12.2035L46.828 11.662C46.8856 11.0673 46.9144 10.7699 46.8287 10.4942C46.7429 10.2184 46.5523 9.99555 46.1711 9.54978L45.8241 9.14394C44.4826 7.57526 43.8119 6.79092 44.0459 6.03819C44.28 5.28545 45.2639 5.06284 47.2316 4.61762L47.7407 4.50244C48.2999 4.37592 48.5795 4.31266 48.804 4.14225C49.0284 3.97183 49.1724 3.71355 49.4604 3.19699L49.7225 2.7267Z" fill="#E5B95A"/>
<path d="M71.7225 2.7267C72.7359 0.9089 73.2425 0 74 0C74.7575 0 75.2641 0.9089 76.2775 2.7267L76.5396 3.19699C76.8276 3.71355 76.9716 3.97183 77.196 4.14225C77.4205 4.31266 77.7001 4.37592 78.2593 4.50244L78.7684 4.61762C80.7361 5.06284 81.72 5.28545 81.9541 6.03819C82.1881 6.79092 81.5174 7.57526 80.1759 9.14394L79.8289 9.54978C79.4477 9.99555 79.2571 10.2184 79.1713 10.4942C79.0856 10.7699 79.1144 11.0673 79.172 11.662L79.2245 12.2035C79.4273 14.2965 79.5287 15.343 78.9159 15.8082C78.3031 16.2734 77.3819 15.8492 75.5395 15.0009L75.0628 14.7815C74.5393 14.5404 74.2775 14.4199 74 14.4199C73.7225 14.4199 73.4607 14.5404 72.9372 14.7815L72.4605 15.0009C70.6181 15.8492 69.6969 16.2734 69.0841 15.8082C68.4713 15.343 68.5727 14.2965 68.7755 12.2035L68.828 11.662C68.8856 11.0673 68.9144 10.7699 68.8287 10.4942C68.7429 10.2184 68.5523 9.99555 68.1711 9.54978L67.8241 9.14394C66.4826 7.57526 65.8119 6.79092 66.0459 6.03819C66.28 5.28545 67.2639 5.06284 69.2316 4.61762L69.7407 4.50244C70.2999 4.37592 70.5795 4.31266 70.804 4.14225C71.0284 3.97183 71.1724 3.71355 71.4604 3.19699L71.7225 2.7267Z" fill="#E5B95A"/>
<path d="M93.7225 2.7267C94.7359 0.9089 95.2425 0 96 0C96.7575 0 97.2641 0.9089 98.2775 2.7267L98.5396 3.19699C98.8276 3.71355 98.9716 3.97183 99.196 4.14225C99.4205 4.31266 99.7001 4.37592 100.259 4.50244L100.768 4.61762C102.736 5.06284 103.72 5.28545 103.954 6.03819C104.188 6.79092 103.517 7.57526 102.176 9.14394L101.829 9.54978C101.448 9.99555 101.257 10.2184 101.171 10.4942C101.086 10.7699 101.114 11.0673 101.172 11.662L101.224 12.2035C101.427 14.2965 101.529 15.343 100.916 15.8082C100.303 16.2734 99.3819 15.8492 97.5395 15.0009L97.0628 14.7815C96.5393 14.5404 96.2775 14.4199 96 14.4199C95.7225 14.4199 95.4607 14.5404 94.9372 14.7815L94.4605 15.0009C92.6181 15.8492 91.6969 16.2734 91.0841 15.8082C90.4713 15.343 90.5727 14.2965 90.7755 12.2035L90.828 11.662C90.8856 11.0673 90.9144 10.7699 90.8287 10.4942C90.7429 10.2184 90.5523 9.99555 90.1711 9.54978L89.8241 9.14394C88.4826 7.57526 87.8119 6.79092 88.0459 6.03819C88.28 5.28545 89.2639 5.06284 91.2316 4.61762L91.7407 4.50244C92.2999 4.37592 92.5795 4.31266 92.804 4.14225C93.0284 3.97183 93.1724 3.71355 93.4604 3.19699L93.7225 2.7267Z" fill="#E5B95A"/>
</svg>
