<svg width="60" height="60" viewBox="0 0 60 60" fill="none" xmlns="http://www.w3.org/2000/svg">
<rect width="60" height="60" rx="30" fill="#52668B"/>
<path fill-rule="evenodd" clip-rule="evenodd" d="M45 30C45 38.2843 38.2843 45 30 45C21.7157 45 15 38.2843 15 30C15 21.7157 21.7157 15 30 15C38.2843 15 45 21.7157 45 30ZM34.5 25.5C34.5 27.9853 32.4853 30 30 30C27.5147 30 25.5 27.9853 25.5 25.5C25.5 23.0147 27.5147 21 30 21C32.4853 21 34.5 23.0147 34.5 25.5ZM30 42.75C32.6761 42.75 35.1596 41.9256 37.2104 40.5168C38.1162 39.8946 38.5033 38.7094 37.9766 37.7448C36.8849 35.7454 34.6353 34.5 29.9999 34.5C25.3645 34.5 23.115 35.7453 22.0232 37.7447C21.4966 38.7092 21.8837 39.8945 22.7894 40.5167C24.8403 41.9255 27.3238 42.75 30 42.75Z" fill="#EFF2F8"/>
</svg>
