<svg width="19" height="15" viewBox="0 0 19 15" fill="none" xmlns="http://www.w3.org/2000/svg">
<path d="M11.3 6.625C11.3 6.14175 11.703 5.75 12.2 5.75C12.6971 5.75 13.1 6.14175 13.1 6.625V8.375C13.1 8.85825 12.6971 9.25 12.2 9.25C11.703 9.25 11.3 8.85825 11.3 8.375V6.625Z" stroke="#52668B"/>
<path d="M11.3071 13.6275L10.8071 13.626V13.626L11.3071 13.6275ZM11.3123 11.875L11.8123 11.8765V11.875H11.3123ZM1.53462 13.4749L1.18653 13.8338H1.18653L1.53462 13.4749ZM1.53462 1.52513L1.18653 1.1662V1.1662L1.53462 1.52513ZM1.35777 5.97195L1.1192 6.41136H1.1192L1.35777 5.97195ZM0.50952 4.86579L0.00998643 4.84419V4.84419L0.50952 4.86579ZM1.35777 9.02805L1.1192 8.58864H1.1192L1.35777 9.02805ZM0.50952 10.1342L1.00905 10.1126V10.1126L0.50952 10.1342ZM17.6422 5.97195L17.8808 6.41136V6.41136L17.6422 5.97195ZM18.4905 4.86579L18.99 4.84419V4.84418L18.4905 4.86579ZM17.4654 1.52513L17.8135 1.1662V1.1662L17.4654 1.52513ZM17.6422 9.02805L17.4037 9.46746H17.4037L17.6422 9.02805ZM18.4905 10.1342L18.99 10.1558V10.1558L18.4905 10.1342ZM17.4654 13.4749L17.8135 13.8338V13.8338L17.4654 13.4749ZM18.4493 9.54048L18.8826 9.29099L18.8826 9.29099L18.4493 9.54048ZM18.4493 5.45952L18.8826 5.70901L18.8826 5.70901L18.4493 5.45952ZM0.55071 9.54048L0.117402 9.29099H0.117402L0.55071 9.54048ZM0.55071 5.45952L0.984018 5.21003L0.984018 5.21003L0.55071 5.45952ZM11.3123 3.125H11.8123L11.8123 3.12351L11.3123 3.125ZM11.3058 0.936232L10.8058 0.937725V0.937726L11.3058 0.936232ZM13.575 0.516539L13.5875 0.0166965V0.0166965L13.575 0.516539ZM14.0303 14.4686L14.0508 14.9682V14.9682L14.0303 14.4686ZM11.1735 14.3723L10.8255 14.0133L10.8255 14.0133L11.1735 14.3723ZM11.3071 13.6275L11.8071 13.629L11.8123 11.8765L11.3123 11.875L10.8123 11.8735L10.8071 13.626L11.3071 13.6275ZM12.2146 11V11.5C12.4513 11.5 12.6168 11.6822 12.6168 11.875H13.1168H13.6168C13.6168 11.1013 12.9744 10.5 12.2146 10.5V11ZM12.2146 11V10.5C11.4547 10.5 10.8123 11.1013 10.8123 11.875H11.3123H11.8123C11.8123 11.6822 11.9779 11.5 12.2146 11.5V11ZM7.69552 0.5V1H10.8547V0.5V0H7.69552V0.5ZM10.4071 14.5V14H7.69551V14.5V15H10.4071V14.5ZM7.69551 14.5V14C5.98051 14 4.74306 13.999 3.80014 13.8761C2.87008 13.7548 2.30232 13.5229 1.88271 13.1159L1.53462 13.4749L1.18653 13.8338C1.82396 14.452 2.63537 14.7326 3.67085 14.8677C4.69348 15.001 6.00795 15 7.69551 15V14.5ZM7.69552 0.5V0C6.00795 0 4.69348 -0.000999808 3.67085 0.132338C2.63537 0.267351 1.82396 0.548006 1.18653 1.1662L1.53462 1.52513L1.88271 1.88406C2.30232 1.47712 2.87008 1.24521 3.80014 1.12394C4.74306 1.001 5.98051 1 7.69552 1V0.5ZM1.35777 5.97195L1.1192 6.41136C1.52105 6.62954 1.78206 7.03946 1.78206 7.5H2.28206H2.78206C2.78206 6.64747 2.29749 5.91321 1.59634 5.53254L1.35777 5.97195ZM0.50952 4.86579L1.00905 4.88739C1.07928 3.2633 1.30629 2.44307 1.88271 1.88406L1.53462 1.52513L1.18653 1.1662C0.307348 2.01883 0.0809728 3.20263 0.00998643 4.84419L0.50952 4.86579ZM2.28206 7.5H1.78206C1.78206 7.96054 1.52105 8.37046 1.1192 8.58864L1.35777 9.02805L1.59634 9.46746C2.29749 9.08679 2.78206 8.35253 2.78206 7.5H2.28206ZM0.50952 10.1342L0.00998643 10.1558C0.0809728 11.7974 0.307348 12.9812 1.18653 13.8338L1.53462 13.4749L1.88271 13.1159C1.30629 12.5569 1.07928 11.7367 1.00905 10.1126L0.50952 10.1342ZM16.7179 7.5H17.2179C17.2179 7.03946 17.479 6.62954 17.8808 6.41136L17.6422 5.97195L17.4037 5.53254C16.7025 5.91321 16.2179 6.64747 16.2179 7.5H16.7179ZM18.4905 4.86579L18.99 4.84418C18.919 3.20263 18.6926 2.01883 17.8135 1.1662L17.4654 1.52513L17.1173 1.88406C17.6937 2.44307 17.9207 3.2633 17.9909 4.88739L18.4905 4.86579ZM17.6422 9.02805L17.8808 8.58864C17.479 8.37046 17.2179 7.96054 17.2179 7.5H16.7179H16.2179C16.2179 8.35253 16.7025 9.08679 17.4037 9.46746L17.6422 9.02805ZM18.4905 10.1342L17.9909 10.1126C17.9207 11.7367 17.6937 12.5569 17.1173 13.1159L17.4654 13.4749L17.8135 13.8338C18.6926 12.9812 18.919 11.7974 18.99 10.1558L18.4905 10.1342ZM17.6422 9.02805L17.4037 9.46746C17.6573 9.60517 17.8294 9.69878 17.9473 9.77109C18.0056 9.80686 18.0374 9.82949 18.0532 9.84216C18.0734 9.85847 18.0455 9.84125 18.016 9.78997L18.4493 9.54048L18.8826 9.29099C18.822 9.1857 18.7397 9.11112 18.6804 9.06335C18.6166 9.01194 18.5436 8.96376 18.4701 8.91863C18.3241 8.82913 18.1237 8.72054 17.8808 8.58864L17.6422 9.02805ZM18.4905 10.1342L18.99 10.1558C18.9966 10.0032 19.0035 9.85564 18.9979 9.73382C18.9924 9.61018 18.9729 9.4478 18.8826 9.29099L18.4493 9.54048L18.016 9.78996C17.9879 9.74117 17.996 9.71375 17.999 9.77902C18.002 9.84612 17.9984 9.94141 17.9909 10.1126L18.4905 10.1342ZM17.6422 5.97195L17.8808 6.41136C18.1237 6.27946 18.3241 6.17087 18.4701 6.08137C18.5436 6.03624 18.6166 5.98806 18.6804 5.93665C18.7397 5.88888 18.822 5.8143 18.8826 5.70901L18.4493 5.45952L18.016 5.21003C18.0455 5.15875 18.0734 5.14153 18.0532 5.15784C18.0374 5.17051 18.0056 5.19314 17.9473 5.22891C17.8294 5.30122 17.6573 5.39483 17.4037 5.53254L17.6422 5.97195ZM18.4905 4.86579L17.9909 4.88739C17.9984 5.05859 18.002 5.15388 17.999 5.22098C17.996 5.28625 17.9879 5.25883 18.016 5.21004L18.4493 5.45952L18.8826 5.70901C18.9729 5.5522 18.9924 5.38982 18.9979 5.26618C19.0035 5.14436 18.9966 4.9968 18.99 4.84419L18.4905 4.86579ZM1.35777 9.02805L1.1192 8.58864C0.876261 8.72054 0.675889 8.82913 0.529949 8.91863C0.456359 8.96376 0.383428 9.01194 0.319594 9.06335C0.260277 9.11112 0.178028 9.1857 0.117402 9.29099L0.55071 9.54048L0.984017 9.78997C0.954488 9.84125 0.926599 9.85847 0.946847 9.84216C0.962578 9.82949 0.994419 9.80686 1.05275 9.77109C1.17065 9.69878 1.34271 9.60517 1.59634 9.46746L1.35777 9.02805ZM0.50952 10.1342L1.00905 10.1126C1.00165 9.94141 0.997994 9.84612 1.00103 9.77902C1.00398 9.71375 1.01211 9.74118 0.984018 9.78997L0.55071 9.54048L0.117402 9.29099C0.0271147 9.4478 0.00764591 9.61018 0.0020518 9.73382C-0.00345957 9.85564 0.00338703 10.0032 0.00998643 10.1558L0.50952 10.1342ZM1.35777 5.97195L1.59634 5.53254C1.34271 5.39483 1.17065 5.30122 1.05275 5.22891C0.994417 5.19314 0.962578 5.17051 0.946848 5.15784C0.926601 5.14153 0.95449 5.15875 0.984018 5.21003L0.55071 5.45952L0.117401 5.70901C0.178027 5.8143 0.260274 5.88888 0.319593 5.93665C0.383427 5.98806 0.456357 6.03624 0.529948 6.08137C0.675887 6.17087 0.876259 6.27946 1.1192 6.41136L1.35777 5.97195ZM0.50952 4.86579L0.00998643 4.84419C0.00338703 4.9968 -0.00345957 5.14436 0.0020518 5.26618C0.00764593 5.38982 0.0271147 5.5522 0.117402 5.70901L0.55071 5.45952L0.984018 5.21003C1.01211 5.25882 1.00398 5.28625 1.00103 5.22098C0.997994 5.15388 1.00165 5.05859 1.00905 4.88739L0.50952 4.86579ZM11.3123 3.125L11.8123 3.12351L11.8058 0.934738L11.3058 0.936232L10.8058 0.937726L10.8123 3.12649L11.3123 3.125ZM12.2146 4V3.5C11.9779 3.5 11.8123 3.31777 11.8123 3.125H11.3123H10.8123C10.8123 3.89873 11.4547 4.5 12.2146 4.5V4ZM13.1168 3.125H12.6168C12.6168 3.31777 12.4513 3.5 12.2146 3.5V4V4.5C12.9744 4.5 13.6168 3.89873 13.6168 3.125H13.1168ZM13.1168 0.951658H12.6168V3.125H13.1168H13.6168V0.951658H13.1168ZM13.575 0.516539L13.5625 1.01638C15.5284 1.06568 16.4836 1.2695 17.1173 1.88406L17.4654 1.52513L17.8135 1.1662C16.8673 0.248567 15.523 0.0652295 13.5875 0.0166965L13.575 0.516539ZM13.1168 0.951658H13.6168C13.6168 1.00032 13.5799 1.01682 13.5625 1.01638L13.575 0.516539L13.5875 0.0166965C13.0668 0.00363895 12.6168 0.414743 12.6168 0.951658H13.1168ZM10.8547 0.5V1C10.8463 1 10.8351 0.996262 10.8256 0.987127C10.8159 0.977733 10.8059 0.959917 10.8058 0.937725L11.3058 0.936232L11.8058 0.934739C11.8042 0.403777 11.3644 0 10.8547 0V0.5ZM14.0303 14.4686L14.0508 14.9682C15.7337 14.8991 16.9405 14.6804 17.8135 13.8338L17.4654 13.4749L17.1173 13.1159C16.5374 13.6783 15.6829 13.9003 14.0097 13.9691L14.0303 14.4686ZM13.1168 11.875H12.6168V13.6044H13.1168H13.6168V11.875H13.1168ZM11.3071 13.6275L10.8071 13.626C10.8068 13.7308 10.8065 13.8137 10.8044 13.8851C10.8024 13.9566 10.7988 14.0038 10.7942 14.0364C10.7856 14.0972 10.7806 14.0568 10.8255 14.0133L11.1735 14.3723L11.5215 14.7313C11.6981 14.5601 11.7594 14.353 11.7843 14.1762C11.8071 14.0153 11.8065 13.8202 11.8071 13.629L11.3071 13.6275ZM10.4071 14.5V15C10.6049 15 10.8022 15.001 10.9643 14.9798C11.1395 14.957 11.3469 14.9006 11.5215 14.7313L11.1735 14.3723L10.8255 14.0133C10.8684 13.9717 10.9042 13.9792 10.8349 13.9882C10.7525 13.999 10.6324 14 10.4071 14V14.5ZM14.0303 14.4686L14.0097 13.9691C13.7833 13.9784 13.6646 13.9821 13.5833 13.9744C13.5178 13.9681 13.5538 13.9602 13.5963 13.9998L13.2554 14.3656L12.9145 14.7314C13.0956 14.9001 13.307 14.9525 13.4882 14.9698C13.6536 14.9856 13.8531 14.9763 14.0508 14.9682L14.0303 14.4686ZM13.1168 13.6044H12.6168C12.6168 13.8001 12.6156 14.0002 12.6391 14.1652C12.6651 14.3474 12.7297 14.5592 12.9145 14.7314L13.2554 14.3656L13.5963 13.9998C13.6425 14.0429 13.6378 14.0847 13.6291 14.024C13.6244 13.9909 13.6208 13.9428 13.6188 13.8696C13.6168 13.7966 13.6168 13.7117 13.6168 13.6044H13.1168Z" fill="#52668B"/>
</svg>
